<svg width="30" height="30" viewBox="0 0 30 30" fill="none" xmlns="http://www.w3.org/2000/svg">
<g clip-path="url(#clip0_130_1106)">
<path d="M16.5213 2.58946C16.0476 1.84867 15.4108 1.23326 14.6627 0.793158C12.6064 -0.420749 9.95696 -0.207438 7.51204 1.20154C2.97263 3.8188 0 8.73899 0 14.5629C0 22.3376 5.46801 28.6148 12.6091 29.8034C13.3891 29.9325 14.1868 29.9999 14.9995 29.9999C16.981 30.0071 18.9442 29.6088 20.7747 28.828C22.6053 28.0473 24.2668 26.8998 25.6625 25.4523C27.0583 24.0047 28.1604 22.286 28.9049 20.3961C29.6494 18.5062 30.0213 16.4828 29.9991 14.4436C29.9677 11.7324 28.9109 8.40499 27.2405 5.74562C25.5769 3.09607 23.0188 0.682293 19.8403 0.713167C18.2885 0.715973 17.229 1.59448 16.5213 2.59086M25.596 8.40779C25.0265 8.31353 24.4473 8.29796 23.8738 8.36148L22.292 5.62493L19.9494 7.05495L21.1657 9.16C20.6568 9.40646 20.1707 9.70004 19.7135 10.0371C19.7054 10.0099 19.6972 9.98279 19.6889 9.9557C19.3248 8.81898 18.6212 7.88574 17.6831 6.95812L17.6885 6.93006C17.7826 6.47677 17.9326 5.89157 18.1576 5.32321C18.6662 4.03773 19.2567 3.51708 19.8485 3.51708H19.8635C21.6239 3.49743 23.4579 4.88817 24.951 7.26686C25.1828 7.63454 25.3983 8.01485 25.5974 8.40358L25.596 8.40779ZM17.1949 12.6123C16.7449 12.6235 16.2827 12.6754 15.8313 12.7765C15.4633 12.1424 14.9699 11.595 14.3832 11.1696C13.3059 10.3907 11.8305 10.0048 10.2351 10.6181C10.089 10.5314 9.94168 10.4467 9.79333 10.3641L14.2018 5.91683L12.2928 3.91283L7.06341 9.18806C5.9589 8.85827 4.92666 8.74039 3.99942 8.87231C5.06648 6.66793 6.75629 4.84715 8.847 3.649C10.7069 2.57683 12.3064 2.63577 13.3073 3.22659C14.2618 3.78933 15.0541 5.06639 14.855 7.34826L14.7936 8.05415L15.3091 8.52427C16.4299 9.54452 16.8963 10.2041 17.0981 10.8342C17.2399 11.2763 17.2863 11.8109 17.1949 12.6123ZM13.3632 14.0226C12.1987 15.026 11.4174 16.4336 10.9633 17.9549L6.90797 13.3729L4.89121 15.2646L10.4656 21.5629C10.4588 23.2357 10.6674 24.9478 10.9701 26.4957C8.55667 25.6429 6.46356 24.0332 4.98504 21.8929C3.50651 19.7525 2.71689 17.1891 2.72719 14.5629C2.72719 13.1034 3.12127 12.3077 3.58489 11.9597C4.0226 11.6285 4.98393 11.3577 6.95296 12.1056C7.66476 12.3765 8.48837 12.7919 9.43061 13.3953L10.1151 13.8332L10.8188 13.4262C11.6683 12.935 12.3173 13.1091 12.8151 13.4683C13.0332 13.6255 13.22 13.822 13.3632 14.0226ZM15.77 27.1679L25.7133 15.8891L23.6938 14.003L19.6957 18.5373L19.7053 17.1142L16.9781 17.0946L16.9467 21.6555L13.5609 25.4965C13.3059 24.0637 13.1519 22.5242 13.2009 21.0801C13.2882 18.6172 14.2441 16.5936 15.6581 15.7923C16.2445 15.4597 17.2795 15.3292 18.0976 15.4779L19.3112 15.6954L19.6453 14.4759C19.8198 13.8402 20.2821 13.1596 21.0048 12.5533C21.7381 11.9434 22.5914 11.5048 23.5056 11.2678C24.5979 10.9928 25.5292 11.1359 26.1428 11.571C26.6787 11.9499 27.2173 12.7245 27.2678 14.3131V14.3384L27.2719 14.5629C27.2856 17.7795 26.1007 20.8791 23.9612 23.2239C21.8216 25.5686 18.8901 26.9802 15.77 27.1679Z" fill="#78AA8C"/>
</g>
<defs>
<clipPath id="clip0_130_1106">
<rect width="30" height="30" fill="white"/>
</clipPath>
</defs>
</svg>
