<svg width="30" height="30" viewBox="0 0 30 30" fill="none" xmlns="http://www.w3.org/2000/svg">
<g clip-path="url(#clip0_130_1141)">
<path d="M0.127197 2.8758C0.127197 2.18076 0.684489 1.62158 1.3772 1.62158H3.74699C4.89282 1.62158 5.90845 2.2905 6.38241 3.29388H27.7887C29.1584 3.29388 30.1584 4.60036 29.7991 5.92775L27.6637 13.8868C27.2209 15.5278 25.7366 16.6723 24.0439 16.6723H9.01782L9.29907 18.1616C9.41366 18.7522 9.92928 19.1807 10.5282 19.1807H25.5439C26.2366 19.1807 26.7939 19.7399 26.7939 20.4349C26.7939 21.13 26.2366 21.6891 25.5439 21.6891H10.5282C8.72616 21.6891 7.17928 20.4036 6.84595 18.632L4.15845 4.46971C4.12199 4.27113 3.95011 4.13003 3.74699 4.13003H1.3772C0.684489 4.13003 0.127197 3.57085 0.127197 2.8758ZM6.79386 25.8699C6.79386 25.5405 6.85853 25.2143 6.98416 24.91C7.1098 24.6056 7.29395 24.3291 7.5261 24.0962C7.75824 23.8632 8.03384 23.6785 8.33716 23.5524C8.64047 23.4263 8.96556 23.3614 9.29386 23.3614C9.62217 23.3614 9.94726 23.4263 10.2506 23.5524C10.5539 23.6785 10.8295 23.8632 11.0616 24.0962C11.2938 24.3291 11.4779 24.6056 11.6036 24.91C11.7292 25.2143 11.7939 25.5405 11.7939 25.8699C11.7939 26.1993 11.7292 26.5255 11.6036 26.8298C11.4779 27.1342 11.2938 27.4107 11.0616 27.6436C10.8295 27.8766 10.5539 28.0613 10.2506 28.1874C9.94726 28.3135 9.62217 28.3783 9.29386 28.3783C8.96556 28.3783 8.64047 28.3135 8.33716 28.1874C8.03384 28.0613 7.75824 27.8766 7.5261 27.6436C7.29395 27.4107 7.1098 27.1342 6.98416 26.8298C6.85853 26.5255 6.79386 26.1993 6.79386 25.8699ZM24.2939 23.3614C24.9569 23.3614 25.5928 23.6257 26.0616 24.0962C26.5305 24.5666 26.7939 25.2046 26.7939 25.8699C26.7939 26.5352 26.5305 27.1732 26.0616 27.6436C25.5928 28.1141 24.9569 28.3783 24.2939 28.3783C23.6308 28.3783 22.9949 28.1141 22.5261 27.6436C22.0573 27.1732 21.7939 26.5352 21.7939 25.8699C21.7939 25.2046 22.0573 24.5666 22.5261 24.0962C22.9949 23.6257 23.6308 23.3614 24.2939 23.3614Z" fill="#4B4B4B"/>
</g>
<defs>
<clipPath id="clip0_130_1141">
<rect width="29.7456" height="26.7568" fill="white" transform="translate(0.127197 1.62158)"/>
</clipPath>
</defs>
</svg>
