<svg width="30" height="30" viewBox="0 0 30 30" fill="none" xmlns="http://www.w3.org/2000/svg">
<g clip-path="url(#clip0_227_877)">
<path d="M19.2859 14.9999C19.2859 16.1365 18.8343 17.2266 18.0306 18.0304C17.2269 18.8341 16.1368 19.2856 15.0001 19.2856C13.8635 19.2856 12.7734 18.8341 11.9697 18.0304C11.1659 17.2266 10.7144 16.1365 10.7144 14.9999C10.7144 13.8633 11.1659 12.7732 11.9697 11.9694C12.7734 11.1657 13.8635 10.7142 15.0001 10.7142C16.1368 10.7142 17.2269 11.1657 18.0306 11.9694C18.8343 12.7732 19.2859 13.8633 19.2859 14.9999Z" stroke="#4B4B4B" stroke-width="3" stroke-linecap="round" stroke-linejoin="round"/>
<path d="M1.36871 15C3.18872 9.20423 8.60444 4.99994 15.0002 4.99994C21.3973 4.99994 26.8116 9.20423 28.6316 15C26.8116 20.7957 21.3973 25 15.0002 25C8.60444 25 3.18872 20.7957 1.36871 15Z" stroke="#4B4B4B" stroke-width="3" stroke-linecap="round" stroke-linejoin="round"/>
</g>
<defs>
<clipPath id="clip0_227_877">
<rect width="30" height="30" fill="white"/>
</clipPath>
</defs>
</svg>
