<svg width="30" height="30" viewBox="0 0 30 30" fill="none" xmlns="http://www.w3.org/2000/svg">
<g clip-path="url(#clip0_227_878)">
<path d="M0.086271 12.1871C0.0154062 11.9754 -0.0122436 11.7517 0.00496089 11.5292C0.0221654 11.3067 0.0838741 11.0899 0.186428 10.8917C0.288982 10.6934 0.430293 10.5178 0.601983 10.3752C0.773673 10.2326 0.972246 10.126 1.18593 10.0616C1.39961 9.99714 1.62405 9.97628 1.84595 10.0002C2.06784 10.0242 2.28267 10.0924 2.47769 10.2009C2.67272 10.3094 2.84397 10.456 2.98129 10.6319C3.11861 10.8079 3.21921 11.0096 3.27712 11.2251C6.75471 22.8716 23.2524 22.8732 26.7334 11.2318C26.7958 11.0218 26.8989 10.8262 27.0369 10.6561C27.1749 10.4861 27.345 10.3448 27.5376 10.2405C27.7302 10.1361 27.9414 10.0707 28.1593 10.048C28.3771 10.0253 28.5973 10.0458 28.8073 10.1082C29.0172 10.1706 29.2128 10.2737 29.3829 10.4117C29.553 10.5497 29.6943 10.7198 29.7986 10.9124C29.9029 11.105 29.9683 11.3162 29.991 11.5341C30.0137 11.7519 29.9933 11.9721 29.9309 12.1821C29.3243 14.2679 28.2956 16.2069 26.9084 17.8786L29.034 20.0058C29.3377 20.3202 29.5057 20.7413 29.5019 21.1785C29.4981 21.6156 29.3228 22.0337 29.0137 22.3428C28.7046 22.6519 28.2864 22.8272 27.8493 22.831C27.4122 22.8348 26.9911 22.6668 26.6767 22.3631L24.4911 20.1775C23.3116 21.0669 22.0086 21.7796 20.6234 22.2931L21.2186 24.5187C21.2821 24.7322 21.3021 24.9562 21.2776 25.1775C21.2531 25.3989 21.1844 25.6131 21.0757 25.8075C20.9671 26.0019 20.8205 26.1725 20.6448 26.3094C20.4691 26.4462 20.2677 26.5464 20.0526 26.6041C19.8375 26.6618 19.613 26.6758 19.3924 26.6453C19.1717 26.6148 18.9595 26.5404 18.7681 26.4265C18.5767 26.3126 18.4101 26.1616 18.278 25.9822C18.146 25.8028 18.0513 25.5988 17.9994 25.3822L17.3925 23.12C15.8138 23.3534 14.2 23.3534 12.6213 23.12L12.0145 25.3822C11.9626 25.5988 11.8678 25.8028 11.7358 25.9822C11.6038 26.1616 11.4371 26.3126 11.2458 26.4265C11.0544 26.5404 10.8421 26.6148 10.6215 26.6453C10.4009 26.6758 10.1764 26.6618 9.96126 26.6041C9.74615 26.5464 9.54478 26.4462 9.36904 26.3094C9.19331 26.1725 9.04677 26.0019 8.93808 25.8075C8.82939 25.6131 8.76076 25.3989 8.73623 25.1775C8.71169 24.9562 8.73177 24.7322 8.79526 24.5187L9.39042 22.2931C8.00513 21.7791 6.7022 21.0658 5.52272 20.1759L3.3388 22.3631C3.02621 22.6761 2.60206 22.8522 2.15967 22.8525C1.71728 22.8528 1.29288 22.6774 0.979842 22.3648C0.666804 22.0522 0.490765 21.628 0.490452 21.1856C0.490139 20.7432 0.665579 20.3188 0.978176 20.0058L3.10374 17.8802C1.79673 16.3198 0.753116 14.4226 0.082937 12.1887L0.086271 12.1871Z" fill="#4B4B4B"/>
</g>
<defs>
<clipPath id="clip0_227_878">
<rect width="30" height="30" fill="white"/>
</clipPath>
</defs>
</svg>
