<?xml version="1.0" encoding="UTF-8"?>
<svg xmlns="http://www.w3.org/2000/svg" xmlns:xlink="http://www.w3.org/1999/xlink" width="30px" height="30px" viewBox="0 0 30 30" version="1.1">
<g id="surface1">
<path style=" stroke:none;fill-rule:nonzero;fill:rgb(100%,100%,100%);fill-opacity:1;" d="M 15 0 C 6.75 0 0 6.761719 0 15.089844 C 0 22.621094 5.488281 28.871094 12.660156 30 L 12.660156 19.457031 L 8.851562 19.457031 L 8.851562 15.089844 L 12.660156 15.089844 L 12.660156 11.761719 C 12.660156 7.980469 14.894531 5.902344 18.328125 5.902344 C 19.964844 5.902344 21.675781 6.191406 21.675781 6.191406 L 21.675781 9.910156 L 19.785156 9.910156 C 17.925781 9.910156 17.339844 11.070312 17.339844 12.257812 L 17.339844 15.089844 L 21.511719 15.089844 L 20.835938 19.457031 L 17.339844 19.457031 L 17.339844 30 C 20.875 29.441406 24.09375 27.628906 26.414062 24.894531 C 28.738281 22.160156 30.007812 18.683594 30 15.089844 C 30 6.761719 23.25 0 15 0 Z M 15 0 "/>
</g>
</svg>
