<?xml version="1.0" encoding="UTF-8"?>
<svg xmlns="http://www.w3.org/2000/svg" xmlns:xlink="http://www.w3.org/1999/xlink" width="30px" height="30px" viewBox="0 0 30 30" version="1.1">
<g id="surface1">
<path style=" stroke:none;fill-rule:nonzero;fill:rgb(100%,100%,100%);fill-opacity:1;" d="M 8.699219 0 L 21.300781 0 C 26.101562 0 30 3.898438 30 8.699219 L 30 21.300781 C 30 23.605469 29.082031 25.820312 27.453125 27.453125 C 25.820312 29.082031 23.605469 30 21.300781 30 L 8.699219 30 C 3.898438 30 0 26.101562 0 21.300781 L 0 8.699219 C 0 6.394531 0.917969 4.179688 2.546875 2.546875 C 4.179688 0.917969 6.394531 0 8.699219 0 Z M 8.398438 3 C 6.96875 3 5.59375 3.570312 4.582031 4.582031 C 3.570312 5.59375 3 6.96875 3 8.398438 L 3 21.601562 C 3 24.585938 5.414062 27 8.398438 27 L 21.601562 27 C 23.03125 27 24.40625 26.429688 25.417969 25.417969 C 26.429688 24.40625 27 23.03125 27 21.601562 L 27 8.398438 C 27 5.414062 24.585938 3 21.601562 3 Z M 22.875 5.25 C 23.371094 5.25 23.847656 5.449219 24.199219 5.800781 C 24.550781 6.152344 24.75 6.628906 24.75 7.125 C 24.75 7.621094 24.550781 8.097656 24.199219 8.449219 C 23.847656 8.800781 23.371094 9 22.875 9 C 22.378906 9 21.902344 8.800781 21.550781 8.449219 C 21.199219 8.097656 21 7.621094 21 7.125 C 21 6.628906 21.199219 6.152344 21.550781 5.800781 C 21.902344 5.449219 22.378906 5.25 22.875 5.25 Z M 15 7.5 C 16.988281 7.5 18.898438 8.289062 20.304688 9.695312 C 21.710938 11.101562 22.5 13.011719 22.5 15 C 22.5 16.988281 21.710938 18.898438 20.304688 20.304688 C 18.898438 21.710938 16.988281 22.5 15 22.5 C 13.011719 22.5 11.101562 21.710938 9.695312 20.304688 C 8.289062 18.898438 7.5 16.988281 7.5 15 C 7.5 13.011719 8.289062 11.101562 9.695312 9.695312 C 11.101562 8.289062 13.011719 7.5 15 7.5 Z M 15 10.5 C 13.804688 10.5 12.660156 10.972656 11.816406 11.816406 C 10.972656 12.660156 10.5 13.804688 10.5 15 C 10.5 16.195312 10.972656 17.339844 11.816406 18.183594 C 12.660156 19.027344 13.804688 19.5 15 19.5 C 16.195312 19.5 17.339844 19.027344 18.183594 18.183594 C 19.027344 17.339844 19.5 16.195312 19.5 15 C 19.5 13.804688 19.027344 12.660156 18.183594 11.816406 C 17.339844 10.972656 16.195312 10.5 15 10.5 Z M 15 10.5 "/>
</g>
</svg>
