<svg width="30" height="30" viewBox="0 0 30 30" fill="none" xmlns="http://www.w3.org/2000/svg">
<path fill-rule="evenodd" clip-rule="evenodd" d="M24.7409 2.70154C27.8834 4.53303 30.0944 8.2515 29.9969 12.5895C29.8754 18.0044 25.6619 22.7804 18.4785 27.0464C17.4135 27.6794 16.2915 28.4999 15 28.4999C13.7325 28.4999 12.5625 27.6644 11.52 27.0449C4.33957 22.7804 0.124601 18.0029 0.00310152 12.5895C-0.0943978 8.2515 2.11659 4.53453 5.25907 2.70154C8.19905 0.990054 11.892 0.979554 15 3.50704C18.108 0.979554 21.801 0.988554 24.7409 2.70154ZM23.2304 5.29502C21.1395 4.07703 18.5265 4.12053 16.2645 6.40952C16.0989 6.57632 15.9019 6.70871 15.6848 6.79905C15.4678 6.88939 15.2351 6.9359 15 6.9359C14.7649 6.9359 14.5322 6.88939 14.3152 6.79905C14.0981 6.70871 13.9011 6.57632 13.7355 6.40952C11.4735 4.12053 8.86054 4.07703 6.76956 5.29502C4.60357 6.55802 2.92958 9.237 3.00308 12.525C3.08708 16.2914 6.06306 20.3159 13.053 24.4679C13.665 24.8324 14.304 25.2989 15 25.4924C15.696 25.2989 16.335 24.8324 16.947 24.4679C23.9369 20.3159 26.9129 16.2929 26.9969 12.5235C27.0719 9.2385 25.3964 6.55802 23.2304 5.29502Z" fill="#DC7878"/>
</svg>
