<svg width="36" height="36" viewBox="0 0 36 36" fill="none" xmlns="http://www.w3.org/2000/svg">
<path d="M21.8652 13.8375V19.5509C21.8652 19.6955 21.7527 19.808 21.608 19.808H20.692C20.6036 19.808 20.5232 19.7598 20.483 19.7036L17.8634 16.1679V19.5589C17.8634 19.7036 17.7509 19.8161 17.6063 19.8161H16.6902C16.5455 19.8161 16.433 19.7036 16.433 19.5589V13.8455C16.433 13.7009 16.5455 13.5884 16.6902 13.5884H17.5982C17.6786 13.5884 17.767 13.6286 17.8071 13.7009L20.4268 17.2366V13.8455C20.4268 13.7009 20.5393 13.5884 20.6839 13.5884H21.6C21.7446 13.5804 21.8652 13.7009 21.8652 13.8375ZM15.2759 13.5804H14.3598C14.2152 13.5804 14.1027 13.6929 14.1027 13.8375V19.5509C14.1027 19.6955 14.2152 19.808 14.3598 19.808H15.2759C15.4205 19.808 15.533 19.6955 15.533 19.5509V13.8375C15.533 13.7009 15.4205 13.5804 15.2759 13.5804ZM13.0661 18.3696H10.567V13.8375C10.567 13.6929 10.4545 13.5804 10.3098 13.5804H9.39376C9.24911 13.5804 9.13661 13.6929 9.13661 13.8375V19.5509C9.13661 19.6232 9.16072 19.6795 9.20894 19.7277C9.25715 19.7679 9.3134 19.8 9.38572 19.8H13.058C13.2027 19.8 13.3152 19.6875 13.3152 19.5429V18.6268C13.3152 18.4902 13.2027 18.3696 13.0661 18.3696ZM26.6866 13.5804H23.0143C22.8777 13.5804 22.7571 13.6929 22.7571 13.8375V19.5509C22.7571 19.6875 22.8696 19.808 23.0143 19.808H26.6866C26.8312 19.808 26.9437 19.6955 26.9437 19.5509V18.6348C26.9437 18.4902 26.8312 18.3777 26.6866 18.3777H24.1875V17.4134H26.6866C26.8312 17.4134 26.9437 17.3009 26.9437 17.1563V16.2321C26.9437 16.0875 26.8312 15.975 26.6866 15.975H24.1875V15.0107H26.6866C26.8312 15.0107 26.9437 14.8982 26.9437 14.7536V13.8375C26.9357 13.7009 26.8232 13.5804 26.6866 13.5804ZM36 6.56519V29.4911C35.9919 33.0911 33.0428 36.008 29.4348 36H6.50894C2.90894 35.9919 -0.00801914 33.0348 1.65629e-05 29.4348V6.50894C0.00805227 2.90894 2.96519 -0.00801914 6.56519 1.65629e-05H29.4911C33.0911 0.00805227 36.008 2.95716 36 6.56519ZM31.05 16.417C31.05 10.5509 25.1679 5.77769 17.9438 5.77769C10.7197 5.77769 4.83751 10.5509 4.83751 16.417C4.83751 21.6723 9.49822 26.0759 15.7982 26.9116C17.333 27.2411 17.1562 27.8036 16.8107 29.8687C16.7545 30.1982 16.5455 31.1625 17.9438 30.5759C19.342 29.9893 25.4893 26.1321 28.2455 22.9661C30.142 20.8768 31.05 18.7634 31.05 16.417Z" fill="white"/>
</svg>
