<?xml version="1.0" encoding="UTF-8"?>
<svg xmlns="http://www.w3.org/2000/svg" xmlns:xlink="http://www.w3.org/1999/xlink" width="30px" height="30px" viewBox="0 0 30 30" version="1.1">
<g id="surface1">
<path style=" stroke:none;fill-rule:nonzero;fill:rgb(100%,100%,100%);fill-opacity:1;" d="M 18.222656 11.53125 L 18.222656 16.292969 C 18.222656 16.414062 18.128906 16.507812 18.007812 16.507812 L 17.242188 16.507812 C 17.167969 16.507812 17.101562 16.464844 17.070312 16.417969 L 14.886719 13.472656 L 14.886719 16.300781 C 14.886719 16.417969 14.792969 16.511719 14.671875 16.511719 L 13.910156 16.511719 C 13.789062 16.511719 13.695312 16.417969 13.695312 16.300781 L 13.695312 11.539062 C 13.695312 11.417969 13.789062 11.324219 13.910156 11.324219 L 14.664062 11.324219 C 14.730469 11.324219 14.804688 11.355469 14.839844 11.417969 L 17.023438 14.363281 L 17.023438 11.539062 C 17.023438 11.417969 17.117188 11.324219 17.238281 11.324219 L 18 11.324219 C 18.121094 11.316406 18.222656 11.417969 18.222656 11.53125 Z M 12.730469 11.316406 L 11.964844 11.316406 C 11.847656 11.316406 11.753906 11.410156 11.753906 11.53125 L 11.753906 16.292969 C 11.753906 16.414062 11.847656 16.507812 11.964844 16.507812 L 12.730469 16.507812 C 12.851562 16.507812 12.945312 16.414062 12.945312 16.292969 L 12.945312 11.53125 C 12.945312 11.417969 12.851562 11.316406 12.730469 11.316406 Z M 10.886719 15.308594 L 8.804688 15.308594 L 8.804688 11.53125 C 8.804688 11.410156 8.710938 11.316406 8.589844 11.316406 L 7.828125 11.316406 C 7.707031 11.316406 7.613281 11.410156 7.613281 11.53125 L 7.613281 16.292969 C 7.613281 16.351562 7.632812 16.398438 7.675781 16.441406 C 7.714844 16.472656 7.761719 16.5 7.820312 16.5 L 10.882812 16.5 C 11.003906 16.5 11.097656 16.40625 11.097656 16.285156 L 11.097656 15.523438 C 11.097656 15.410156 11.003906 15.308594 10.886719 15.308594 Z M 22.238281 11.316406 L 19.179688 11.316406 C 19.066406 11.316406 18.964844 11.410156 18.964844 11.53125 L 18.964844 16.292969 C 18.964844 16.40625 19.058594 16.507812 19.179688 16.507812 L 22.238281 16.507812 C 22.359375 16.507812 22.453125 16.414062 22.453125 16.292969 L 22.453125 15.527344 C 22.453125 15.410156 22.359375 15.316406 22.238281 15.316406 L 20.15625 15.316406 L 20.15625 14.511719 L 22.238281 14.511719 C 22.359375 14.511719 22.453125 14.417969 22.453125 14.296875 L 22.453125 13.527344 C 22.453125 13.40625 22.359375 13.3125 22.238281 13.3125 L 20.15625 13.3125 L 20.15625 12.507812 L 22.238281 12.507812 C 22.359375 12.507812 22.453125 12.414062 22.453125 12.292969 L 22.453125 11.53125 C 22.445312 11.417969 22.351562 11.316406 22.238281 11.316406 Z M 30 5.472656 L 30 24.574219 C 29.992188 27.574219 27.535156 30.007812 24.527344 30 L 5.425781 30 C 2.425781 29.992188 -0.0078125 27.527344 0 24.527344 L 0 5.425781 C 0.0078125 2.425781 2.472656 -0.0078125 5.472656 0 L 24.574219 0 C 27.574219 0.0078125 30.007812 2.464844 30 5.472656 Z M 25.875 13.679688 C 25.875 8.792969 20.972656 4.816406 14.953125 4.816406 C 8.933594 4.816406 4.03125 8.792969 4.03125 13.679688 C 4.03125 18.058594 7.914062 21.730469 13.164062 22.425781 C 14.445312 22.699219 14.296875 23.167969 14.007812 24.890625 C 13.960938 25.164062 13.789062 25.96875 14.953125 25.480469 C 16.117188 24.992188 21.242188 21.777344 23.539062 19.136719 C 25.117188 17.398438 25.875 15.636719 25.875 13.679688 Z M 25.875 13.679688 "/>
</g>
</svg>
