<svg width="30" height="30" viewBox="0 0 30 30" fill="none" xmlns="http://www.w3.org/2000/svg">
<path d="M21.407 16.2984C23.8708 17.3711 25.9715 19.0409 27.4844 21.1289C28.9973 23.217 29.8653 25.6447 29.9956 28.1522C30.0127 28.3819 29.9799 28.6125 29.8991 28.8304C29.8182 29.0483 29.6909 29.2491 29.5246 29.421C29.3584 29.593 29.1565 29.7326 28.9309 29.8317C28.7053 29.9308 28.4604 29.9874 28.2107 29.9981C27.961 30.0089 27.7115 29.9736 27.4769 29.8943C27.2422 29.815 27.0271 29.6933 26.8441 29.5364C26.6612 29.3795 26.5141 29.1905 26.4115 28.9805C26.309 28.7705 26.253 28.5438 26.2468 28.3136C26.1104 25.6499 24.8657 23.1369 22.7711 21.2962C20.6765 19.4555 17.8929 18.4286 14.9981 18.4286C12.1033 18.4286 9.31966 19.4555 7.22505 21.2962C5.13045 23.1369 3.88574 25.6499 3.74932 28.3136C3.71561 28.7645 3.49159 29.1853 3.12524 29.4859C2.75889 29.7865 2.27934 29.943 1.78927 29.9219C1.2992 29.9008 0.837576 29.7038 0.503254 29.373C0.168933 29.0422 -0.0115092 28.604 0.000569565 28.1522C0.130352 25.6449 0.997896 23.2172 2.51033 21.1292C4.02277 19.0411 6.12316 17.3713 8.58666 16.2984C7.00761 15.0851 5.8726 13.4531 5.33603 11.6245C4.79947 9.79595 4.88738 7.8595 5.58782 6.07858C6.28826 4.29765 7.56722 2.75872 9.25073 1.6711C10.9342 0.583491 12.9406 0 14.9968 0C17.0531 0 19.0594 0.583491 20.7429 1.6711C22.4264 2.75872 23.7054 4.29765 24.4058 6.07858C25.1063 7.8595 25.1942 9.79595 24.6576 11.6245C24.121 13.4531 22.986 15.0851 21.407 16.2984ZM21.2543 9.21417C21.2543 7.68566 20.5952 6.21975 19.4219 5.13893C18.2486 4.05811 16.6573 3.45092 14.9981 3.45092C13.3388 3.45092 11.7475 4.05811 10.5742 5.13893C9.40095 6.21975 8.74181 7.68566 8.74181 9.21417C8.74181 10.7427 9.40095 12.2086 10.5742 13.2894C11.7475 14.3702 13.3388 14.9774 14.9981 14.9774C16.6573 14.9774 18.2486 14.3702 19.4219 13.2894C20.5952 12.2086 21.2543 10.7427 21.2543 9.21417Z" fill="#4B4B4B"/>
</svg>
