<svg width="160" height="160" viewBox="0 0 160 160" fill="none" xmlns="http://www.w3.org/2000/svg">
<path fill-rule="evenodd" clip-rule="evenodd" d="M6.66666 20C6.66666 18.2319 7.36904 16.5362 8.61929 15.286C9.86953 14.0357 11.5652 13.3333 13.3333 13.3333H86.6667C88.4348 13.3333 90.1305 14.0357 91.3807 15.286C92.6309 16.5362 93.3333 18.2319 93.3333 20V53.3333H120C124.377 53.3333 128.712 54.1955 132.756 55.8707C136.8 57.5458 140.475 60.0012 143.57 63.0965C146.665 66.1917 149.121 69.8664 150.796 73.9106C152.471 77.9548 153.333 82.2893 153.333 86.6667V113.333C153.334 117.625 151.955 121.803 149.399 125.251C146.843 128.699 143.246 131.233 139.14 132.48C137.917 136.513 135.452 140.057 132.095 142.606C128.739 145.155 124.663 146.578 120.449 146.673C116.236 146.767 112.1 145.529 108.632 143.133C105.165 140.737 102.542 137.308 101.14 133.333H58.8667C57.4641 137.308 54.842 140.737 51.3744 143.133C47.9068 145.529 43.7711 146.767 39.5575 146.673C35.344 146.578 31.2681 145.155 27.9115 142.606C24.5549 140.057 22.0894 136.513 20.8667 132.48C16.7589 131.234 13.1608 128.7 10.6038 125.252C8.04674 121.805 6.66641 117.626 6.66666 113.333V86.6667H46.6667C48.4348 86.6667 50.1305 85.9643 51.3807 84.7141C52.6309 83.4638 53.3333 81.7681 53.3333 80C53.3333 78.2319 52.6309 76.5362 51.3807 75.286C50.1305 74.0357 48.4348 73.3333 46.6667 73.3333H6.66666V60H33.3333C35.1014 60 36.7971 59.2976 38.0474 58.0474C39.2976 56.7971 40 55.1015 40 53.3333C40 51.5652 39.2976 49.8695 38.0474 48.6193C36.7971 47.3691 35.1014 46.6667 33.3333 46.6667H6.66666V20ZM93.3333 120H101.14C102.458 116.27 104.853 113.014 108.021 110.645C111.19 108.276 114.99 106.9 118.941 106.69C122.891 106.481 126.815 107.449 130.216 109.47C133.617 111.492 136.342 114.476 138.047 118.047C138.667 117.428 139.158 116.694 139.494 115.885C139.829 115.076 140.001 114.209 140 113.333V86.6667C140 81.3624 137.893 76.2753 134.142 72.5245C130.391 68.7738 125.304 66.6667 120 66.6667H93.3333V120ZM46.6667 126.667C46.6667 124.899 45.9643 123.203 44.714 121.953C43.4638 120.702 41.7681 120 40 120C38.2319 120 36.5362 120.702 35.286 121.953C34.0357 123.203 33.3333 124.899 33.3333 126.667C33.3333 128.435 34.0357 130.13 35.286 131.381C36.5362 132.631 38.2319 133.333 40 133.333C41.7681 133.333 43.4638 132.631 44.714 131.381C45.9643 130.13 46.6667 128.435 46.6667 126.667ZM115.287 121.953C114.666 122.571 114.173 123.305 113.838 124.114C113.503 124.924 113.331 125.791 113.333 126.667C113.333 128.209 113.867 129.704 114.846 130.896C115.824 132.089 117.185 132.905 118.698 133.206C120.211 133.508 121.781 133.275 123.142 132.548C124.502 131.821 125.568 130.645 126.159 129.22C126.749 127.796 126.827 126.21 126.38 124.734C125.932 123.258 124.987 121.983 123.705 121.126C122.422 120.268 120.883 119.882 119.348 120.033C117.813 120.184 116.377 120.863 115.287 121.953Z" fill="#78AA8C"/>
</svg>
