<svg width="160" height="160" viewBox="0 0 160 160" fill="none" xmlns="http://www.w3.org/2000/svg">
<path d="M33.3667 60.02C35.1348 60.02 36.8305 60.7224 38.0807 61.9726C39.331 63.2229 40.0333 64.9186 40.0333 66.6867C50.5076 66.6712 60.6799 70.1951 68.9 76.6867H83.3667C92.2467 76.6867 100.227 80.54 105.72 86.6733L126.7 86.6867C133.002 86.6849 139.175 88.4696 144.504 91.8336C149.832 95.1977 154.098 100.003 156.807 105.693C141.04 126.493 115.513 140.02 86.7 140.02C68.1 140.02 52.3667 135.993 39.6267 128.967C39.1603 130.254 38.3083 131.366 37.1868 132.151C36.0653 132.936 34.7289 133.356 33.36 133.353H13.36C11.5919 133.353 9.89619 132.651 8.64595 131.401C7.39571 130.15 6.69333 128.455 6.69333 126.687V66.6867C6.69333 64.9186 7.39571 63.2229 8.64595 61.9726C9.89619 60.7224 11.5919 60.02 13.36 60.02H33.36H33.3667ZM40.0333 80.02V113.487L40.3333 113.713C52.2933 122.113 67.8867 126.687 86.7 126.687C106.727 126.687 125.353 118.98 138.933 105.82L139.82 104.933L139.02 104.267C135.872 101.801 132.056 100.338 128.067 100.067L126.7 100.02L112.62 100.013C113.107 102.153 113.367 104.387 113.367 106.68V113.347H53.3667V100.013H98.6333L98.4067 99.4867C97.1287 96.8178 95.1632 94.5372 92.7122 92.8793C90.2611 91.2215 87.4128 90.2461 84.46 90.0533L83.3667 90.02H63.8333C60.7341 86.8496 57.0317 84.3315 52.9442 82.6141C48.8568 80.8967 44.4669 80.0147 40.0333 80.02ZM26.7 73.3533H20.0333V120.02H26.7V73.3533ZM91.0067 23.8533L93.3667 26.2133L95.72 23.8533C98.8498 20.7499 103.082 19.0126 107.489 19.0216C111.897 19.0307 116.121 20.7853 119.239 23.9015C122.356 27.0177 124.111 31.2418 124.122 35.6494C124.132 40.057 122.396 44.2893 119.293 47.42L93.36 73.3533L67.44 47.42C65.8482 45.8825 64.5785 44.0435 63.705 42.0101C62.8315 39.9767 62.3717 37.7897 62.3525 35.5767C62.3333 33.3637 62.755 31.169 63.593 29.1208C64.431 27.0725 65.6685 25.2116 67.2334 23.6468C68.7983 22.0819 70.6592 20.8443 72.7074 20.0063C74.7557 19.1683 76.9504 18.7466 79.1634 18.7658C81.3763 18.7851 83.5633 19.2448 85.5967 20.1183C87.6301 20.9918 89.4692 22.2615 91.0067 23.8533ZM76.8667 33.28C76.3151 33.8303 75.9738 34.5564 75.902 35.3322C75.8301 36.108 76.0323 36.8844 76.4733 37.5267L76.86 37.9933L93.36 54.4933L109.867 37.9933C110.419 37.4418 110.76 36.714 110.831 35.9367C110.901 35.1595 110.697 34.3821 110.253 33.74L109.867 33.28C109.315 32.7278 108.587 32.3867 107.81 32.316C107.033 32.2453 106.255 32.4497 105.613 32.8933L105.147 33.28L93.3533 45.0733L81.5733 33.2733L81.12 32.8933C80.4779 32.4497 79.7005 32.2453 78.9233 32.316C78.146 32.3867 77.4182 32.7278 76.8667 33.28Z" fill="#78AA8C"/>
</svg>
