<svg width="160" height="160" viewBox="0 0 160 160" fill="none" xmlns="http://www.w3.org/2000/svg">
<path d="M33.3333 46.6667H24.5933C23.1803 46.6662 21.7831 46.9652 20.494 47.5441C19.2049 48.1229 18.0531 48.9683 17.1146 50.0247C16.176 51.081 15.472 52.3243 15.0489 53.6726C14.6258 55.0208 14.4933 56.4434 14.66 57.8467L23.7333 134.12C23.9258 135.74 24.7056 137.233 25.925 138.317C27.1443 139.4 28.7187 139.999 30.35 140H131.577C133.234 140 134.831 139.384 136.058 138.27C137.285 137.156 138.053 135.626 138.213 133.977L145.607 57.63C145.741 56.242 145.584 54.8413 145.145 53.5178C144.705 52.1943 143.994 50.9773 143.057 49.9449C142.12 48.9124 140.977 48.0875 139.702 47.5229C138.427 46.9583 137.048 46.6667 135.653 46.6667H126.667M16.6667 73.3333H143.333M50 96.6667H110M56.6667 120H103.333" stroke="#78AA8C" stroke-width="12" stroke-linecap="round" stroke-linejoin="round"/>
<path d="M80 20C65.2733 20 53.3333 43.0833 53.3333 71.5567C53.3333 72.15 53.34 72.7433 53.35 73.3333H106.65C106.66 72.7433 106.667 72.15 106.667 71.5567C106.667 43.0833 94.7267 20 80 20Z" stroke="#78AA8C" stroke-width="12" stroke-linecap="round" stroke-linejoin="round"/>
</svg>
