<?xml version="1.0" encoding="utf-8"?>
<!-- Generator: Adobe Illustrator 27.0.0, SVG Export Plug-In . SVG Version: 6.00 Build 0)  -->
<svg version="1.1" id="_圖層_1" xmlns="http://www.w3.org/2000/svg" xmlns:xlink="http://www.w3.org/1999/xlink" x="0px" y="0px"
	 viewBox="0 0 573.1 737.9" style="enable-background:new 0 0 573.1 737.9;" xml:space="preserve">
<style type="text/css">
	.st0{fill:none;stroke:#FFFFFF;stroke-width:40;stroke-linecap:round;stroke-linejoin:round;}
	.st1{fill:#FFFFFF;}
	.st2{font-family:'GenJyuuGothicX-Monospace-Regular';}
	.st3{font-size:122px;}
	.st4{letter-spacing:8;}
</style>
<g>
	<path class="st0" d="M153.6,59.4c128-14,225,55,261.5,171.5"/>
	<path class="st0" d="M304.6,400.4c-26.4,60-118.4,77.5-158.5,82.4c-12.3,1.5-24.6-2.4-33.7-10.7c-53.2-48.4-86.2-118.7-84.7-196.7
		c2.7-142,120.5-255.8,262.6-253.9c140.1,1.9,253.3,115,255.4,255c2.1,142.6-114.8,262.1-257.4,262.9c-33.8,0.2-66.1-6.1-95.7-17.6"
		/>
	<line class="st0" x1="41.1" y1="280.9" x2="268.1" y2="280.9"/>
	<path class="st0" d="M41.2,349.4H302c26,0,47.1-30.9,47.1-69s-21.1-69-47.1-69H44.2"/>
	<path class="st0" d="M158.1,356.9c0,0,38.7,131.5,217.5,100"/>
	<line class="st0" x1="215.1" y1="140.9" x2="139.1" y2="140.9"/>
</g>
<text transform="matrix(1 -6.981316e-04 6.981316e-04 1 29.05 710.93)" class="st1 st2 st3 st4">圓食生鮮</text>
</svg>
