<?xml version="1.0" encoding="utf-8"?>
<!-- Generator: Adobe Illustrator 27.0.0, SVG Export Plug-In . SVG Version: 6.00 Build 0)  -->
<svg version="1.1" id="圖層_1" xmlns="http://www.w3.org/2000/svg" xmlns:xlink="http://www.w3.org/1999/xlink" x="0px" y="0px"
	 viewBox="0 0 238 69" style="enable-background:new 0 0 238 69;" xml:space="preserve">
<style type="text/css">
	.st0{fill-rule:evenodd;clip-rule:evenodd;fill:#FFFFFF;}
	.st1{fill:#FFFFFF;}
	.st2{clip-path:url(#SVGID_00000047046224977985941670000009489944891273536149_);}
	.st3{clip-path:url(#SVGID_00000056420588910778050620000009608039448610419358_);}
	.st4{clip-path:url(#SVGID_00000153699015651701919780000003696928165164159369_);}
	.st5{clip-path:url(#SVGID_00000141448751335196997720000008599408960809054399_);}
	.st6{clip-path:url(#SVGID_00000024692417957299964310000010569491665988773537_);}
	.st7{clip-path:url(#SVGID_00000137829029244329950650000003470512320016735660_);}
	.st8{clip-path:url(#SVGID_00000166634753652181849460000015492599329568099517_);}
	.st9{clip-path:url(#SVGID_00000150790493149710299980000006516738401153502854_);}
</style>
<g id="surface1">
	<path class="st0" d="M37.1,14.2c-5-3.3-11.3-4.9-18.6-4.1c-1.3,0.1-2.5-0.8-2.6-2.1c-0.1-1.3,0.8-2.5,2.1-2.6
		c8.3-0.9,15.8,0.9,21.8,4.9c6,4,10.4,10.2,12.7,17.8c0.4,1.3-0.3,2.6-1.6,3c-1.3,0.4-2.6-0.3-3-1.6C45.9,22.8,42.1,17.6,37.1,14.2z
		"/>
	<path class="st0" d="M35,5.4C18.9,5.2,5.6,18.1,5.3,34.2C5.1,43.1,8.8,51,14.9,56.5h0c0.6,0.5,1.4,0.8,2.2,0.7
		c2.4-0.3,6.2-0.9,9.7-2.4c3.6-1.4,6.5-3.5,7.8-6.3c0.5-1.2,1.9-1.8,3.1-1.2c1.2,0.5,1.8,1.9,1.2,3.2c-2,4.5-6.3,7.2-10.4,8.8
		c-4.1,1.6-8.4,2.4-10.9,2.7c-2.2,0.3-4.4-0.4-6-1.9c-7-6.4-11.3-15.7-11.1-25.9v0C0.9,15.4,16.3,0.4,35,0.7
		c18.4,0.2,33.3,15.2,33.6,33.6v0c0.3,18.8-15.1,34.6-33.8,34.7l0-2.4l0,2.4c-4.4,0-8.7-0.8-12.6-2.3c-1.2-0.5-1.8-1.9-1.4-3.1
		s1.9-1.8,3.1-1.4c3.3,1.3,7,2,10.8,2c16.1-0.1,29.3-13.7,29.1-29.8l2.4,0l-2.4,0C63.6,18.5,50.8,5.6,35,5.4L35,3L35,5.4z"/>
	<path class="st0" d="M2.2,34.9c0-1.3,1.1-2.4,2.4-2.4h27.8c1.3,0,2.4,1.1,2.4,2.4s-1.1,2.4-2.4,2.4H4.5C3.2,37.3,2.2,36.2,2.2,34.9
		z"/>
	<path class="st0" d="M2.5,26.3C2.5,25,3.6,24,4.9,24h31.5c2.6,0,4.7,1.6,6,3.5c1.3,2,2.1,4.6,2.1,7.3s-0.8,5.4-2.1,7.3
		c-1.3,2-3.4,3.5-6,3.5H4.5c-1.3,0-2.4-1.1-2.4-2.4s1.1-2.4,2.4-2.4h31.9c0.6,0,1.4-0.3,2.1-1.4c0.7-1.1,1.3-2.7,1.3-4.6
		s-0.5-3.6-1.3-4.6c-0.8-1.1-1.5-1.4-2.1-1.4H4.9C3.6,28.7,2.5,27.7,2.5,26.3z"/>
	<path class="st0" d="M21.1,43.5c-0.4-1.3-1.7-2-3-1.6c-1.3,0.4-2,1.7-1.6,3l2.3-0.7c-2.3,0.7-2.3,0.7-2.3,0.7v0l0,0l0,0
		c0,0,0,0,0,0.1c0,0,0,0.1,0.1,0.2c0.1,0.2,0.1,0.4,0.2,0.6c0.2,0.5,0.5,1.2,1,2c0.9,1.6,2.3,3.8,4.5,5.8c4.5,4.1,11.9,7.3,23.5,5.3
		c1.3-0.2,2.2-1.5,1.9-2.8c-0.2-1.3-1.5-2.2-2.8-1.9C34.8,55.9,28.9,53,25.5,50c-1.7-1.6-2.8-3.2-3.5-4.5c-0.3-0.6-0.6-1.2-0.7-1.5
		C21.2,43.8,21.2,43.7,21.1,43.5C21.1,43.6,21.1,43.5,21.1,43.5C21.1,43.5,21.1,43.5,21.1,43.5z"/>
	<path class="st0" d="M14.1,17.7c0-1.3,1.1-2.4,2.4-2.4h9.3c1.3,0,2.4,1.1,2.4,2.4c0,1.3-1.1,2.4-2.4,2.4h-9.3
		C15.2,20.1,14.1,19,14.1,17.7z"/>
	<path class="st1" d="M85.6,11.6c0-0.9,0.3-1.6,0.9-2.2c0.6-0.6,1.4-0.9,2.2-0.9l24.7,0c0.9,0,1.6,0.3,2.2,0.9
		c0.6,0.6,0.9,1.4,0.9,2.2l0,28c0,0.5-0.2,0.9-0.5,1.2c-0.3,0.3-0.7,0.5-1.2,0.5h-0.2c-0.4,0-0.8-0.2-1-0.4c-0.3-0.3-0.4-0.6-0.4-1
		c0-0.1-0.1-0.2-0.2-0.2l-24,0c-0.1,0-0.2,0.1-0.2,0.2c0,0.4-0.2,0.7-0.4,1c-0.3,0.3-0.6,0.4-1,0.4h-0.2c-0.5,0-0.9-0.2-1.2-0.5
		c-0.3-0.3-0.5-0.7-0.5-1.2V11.6z M88.9,36.2c0,0.2,0.1,0.4,0.4,0.4l23.6,0c0.2,0,0.4-0.1,0.4-0.4l0-24.2c0-0.2-0.1-0.4-0.4-0.4
		l-23.6,0c-0.2,0-0.4,0.1-0.4,0.4L88.9,36.2z M109.9,28.2c0,0.9-0.3,1.6-0.9,2.2c-0.6,0.6-1.4,0.9-2.2,0.9h-1.2
		c-0.1,0-0.1,0-0.1,0.1s0,0.1,0.1,0.1c1.8,0.7,3.4,1.4,4.8,2.2c0.3,0.2,0.4,0.4,0.4,0.7c0,0.3-0.2,0.5-0.5,0.6
		c-0.4,0.2-0.7,0.2-1.1,0.2c-0.5,0-1-0.2-1.5-0.4c-1-0.6-2.1-1.2-3.4-1.7c-0.3-0.2-0.5-0.4-0.6-0.8c0-0.4,0.1-0.7,0.4-0.9
		c0,0,0-0.1,0-0.1c0,0,0,0-0.1,0h-6.2c0,0,0,0,0,0c0,0,0,0,0,0.1c0.4,0.1,0.6,0.4,0.6,0.8c0.1,0.4-0.1,0.7-0.4,0.9
		c-1.3,0.8-2.7,1.4-4.2,2.1c-0.3,0.1-0.6,0.1-0.8,0.1c-0.5,0-1-0.2-1.5-0.6c-0.2-0.2-0.3-0.4-0.2-0.7s0.2-0.5,0.5-0.6
		c1.9-0.6,3.4-1.2,4.6-1.8c0.1,0,0.1-0.1,0.1-0.1c0-0.1,0-0.1-0.1-0.1h-0.9c-0.9,0-1.6-0.3-2.2-0.9c-0.6-0.6-0.9-1.4-0.9-2.2v-5.1
		c0-0.9,0.3-1.6,0.9-2.2c0.6-0.6,1.4-0.9,2.2-0.9h11.2c0.9,0,1.6,0.3,2.2,0.9c0.6,0.6,0.9,1.4,0.9,2.2L109.9,28.2z M105.8,13.4
		c0.7,0,1.3,0.2,1.9,0.8c0.5,0.5,0.8,1.1,0.8,1.9c0,0.7-0.3,1.4-0.8,1.9c-0.5,0.5-1.2,0.8-1.9,0.8h-9.3c-0.7,0-1.3-0.2-1.8-0.8
		s-0.8-1.1-0.8-1.9c0-0.7,0.2-1.4,0.8-1.9c0.5-0.5,1.1-0.8,1.8-0.8H105.8z M95.6,21.7c-0.2,0-0.4,0.1-0.4,0.4v0.7
		c0,0.2,0.1,0.4,0.4,0.4h10.8c0.2,0,0.4-0.1,0.4-0.4v-0.7c0-0.2-0.1-0.4-0.4-0.4H95.6z M95.6,24.9c-0.2,0-0.4,0.1-0.4,0.4V26
		c0,0.2,0.1,0.4,0.4,0.4h10.8c0.2,0,0.4-0.1,0.4-0.4v-0.8c0-0.2-0.1-0.4-0.4-0.4H95.6z M95.6,28.1c-0.2,0-0.4,0.1-0.4,0.4v0.9
		c0,0.2,0.1,0.4,0.4,0.4h10.8c0.2,0,0.4-0.1,0.4-0.4v-0.9c0-0.2-0.1-0.4-0.4-0.4H95.6z M105.1,16.9c0.2,0,0.4-0.1,0.4-0.4v-1
		c0-0.2-0.1-0.4-0.4-0.4h-8c-0.2,0-0.4,0.1-0.4,0.4v1c0,0.2,0.1,0.4,0.4,0.4H105.1z"/>
	<path class="st1" d="M151,30.8c0.4-0.3,0.8-0.4,1.3-0.4h0c0.5,0,0.9,0.2,1.3,0.4c0.3,0.2,0.5,0.6,0.5,1c0,0.4-0.2,0.7-0.6,1
		c-1.9,1.3-3.9,2.4-6.1,3.6c-0.1,0.1-0.1,0.1-0.1,0.2s0,0.1,0.1,0.2c2.1,1,4.7,1.8,7.6,2.4c0.4,0.1,0.6,0.3,0.7,0.6
		c0.1,0.4,0.1,0.7-0.1,1c-0.3,0.5-0.8,0.9-1.2,1.1c-0.3,0.2-0.6,0.2-1,0.2c-0.2,0-0.3,0-0.5-0.1c-7-1.6-12-4.9-14.9-10
		c-0.1-0.2-0.3-0.3-0.6-0.3h-4.4c-0.2,0-0.4,0.1-0.4,0.4v5.8c0,0.1,0,0.2,0.1,0.2c0.1,0.1,0.2,0.1,0.2,0.1c0.5-0.1,1.7-0.2,3.3-0.3
		c1.4-0.1,2.6-0.2,3.6-0.3c0.1,0,0.1,0,0.2,0c0.3,0,0.6,0.1,0.9,0.4c0.3,0.3,0.5,0.6,0.5,1.1s-0.2,0.8-0.4,1.1
		c-0.3,0.3-0.6,0.5-1.1,0.6c-5.1,0.6-9.3,1-12.7,1.3c-0.1,0-0.1,0-0.2,0c-0.4,0-0.7-0.1-1.1-0.4c-0.4-0.3-0.6-0.6-0.6-1.1
		c0-0.1,0-0.2,0-0.2c0-0.3,0.1-0.6,0.3-0.9c0.3-0.3,0.6-0.5,1.1-0.6c0.2,0,0.3,0,0.4,0c0.7-0.1,1.2-0.1,1.6-0.2
		c0.2,0,0.4-0.2,0.4-0.4V19.7c0-0.1,0-0.1-0.1-0.2c-0.1-0.1-0.2-0.1-0.2,0c-0.9,0.6-1.8,1-2.7,1.5c-0.2,0.1-0.5,0.2-0.8,0.2
		c-0.2,0-0.4,0-0.6-0.1c-0.5-0.2-0.8-0.4-1.1-0.8c-0.2-0.2-0.3-0.5-0.3-0.8c0-0.1,0-0.2,0-0.3c0.1-0.4,0.4-0.7,0.8-0.9
		c2.5-1.2,4.9-2.6,7.3-4.3c2.2-1.6,3.9-3.1,5.3-4.7c0.8-0.9,1.7-1.4,2.8-1.4c1.1,0,2,0.4,2.9,1.3c1.8,1.8,3.8,3.5,6.1,5
		c2.3,1.5,4.6,2.8,6.9,3.7c0.4,0.2,0.7,0.5,0.8,0.9c0.1,0.2,0.1,0.3,0.1,0.4c0,0.3-0.1,0.6-0.2,0.8c-0.3,0.5-0.7,0.8-1.2,0.9
		c-0.2,0.1-0.4,0.1-0.6,0.1c-0.3,0-0.6-0.1-0.9-0.2c-0.8-0.4-1.6-0.8-2.5-1.3c-0.1-0.1-0.2-0.1-0.2,0c-0.1,0.1-0.1,0.1-0.1,0.2v11.1
		c0,0.1,0,0.1,0.1,0.1C150.8,30.9,150.8,30.9,151,30.8C150.9,30.8,150.9,30.8,151,30.8z M141.6,17.8c0,0.2,0.1,0.3,0.3,0.3h6.3
		c0.1,0,0.1,0,0.1-0.1c0-0.1,0-0.1,0-0.1c-3.6-2.2-6.3-4.5-8.3-6.7c-0.2-0.2-0.3-0.2-0.5,0c-1.9,2.2-4.5,4.4-8,6.7
		c-0.1,0-0.1,0.1,0,0.1s0.1,0.1,0.1,0.1h6.1c0.2,0,0.3-0.1,0.3-0.3v-1.3c0-0.5,0.2-0.9,0.5-1.3c0.3-0.3,0.8-0.5,1.3-0.5
		s0.9,0.2,1.2,0.5c0.3,0.3,0.5,0.8,0.5,1.2L141.6,17.8z M133,20.9c-0.2,0-0.4,0.1-0.4,0.4v1.9c0,0.2,0.1,0.4,0.4,0.4h13.8
		c0.2,0,0.4-0.1,0.4-0.4v-1.9c0-0.2-0.1-0.4-0.4-0.4H133z M133,26.1c-0.2,0-0.4,0.1-0.4,0.4v2c0,0.2,0.1,0.4,0.4,0.4h13.8
		c0.2,0,0.4-0.1,0.4-0.4v-2c0-0.2-0.1-0.4-0.4-0.4H133z M149.5,31.8c0.1,0,0.1-0.1,0-0.1s-0.1-0.1-0.1-0.1h-7.8
		c-0.1,0-0.1,0-0.2,0.1c0,0.1,0,0.1,0,0.2c0.7,1,1.6,1.8,2.6,2.7c0.2,0.2,0.4,0.2,0.6,0C146.3,33.7,147.9,32.8,149.5,31.8z"/>
	<path class="st1" d="M181.7,37.9c0,0.2,0.1,0.4,0.4,0.4h12.7c0.5,0,0.9,0.2,1.2,0.5c0.3,0.3,0.5,0.7,0.5,1.2s-0.2,0.9-0.5,1.2
		c-0.3,0.3-0.7,0.5-1.2,0.5l-29.8,0c-0.5,0-0.9-0.2-1.2-0.5c-0.3-0.3-0.5-0.7-0.5-1.2s0.2-0.9,0.5-1.2c0.3-0.3,0.7-0.5,1.2-0.5h12.7
		c0.2,0,0.4-0.1,0.4-0.4V30c0-0.2-0.1-0.4-0.4-0.4h-8.6c-0.4,0-0.8-0.2-1.2-0.5c-0.3-0.3-0.5-0.7-0.5-1.2s0.2-0.8,0.5-1.2
		s0.7-0.5,1.2-0.5h8.6c0.2,0,0.4-0.1,0.4-0.4v-6.7c0-0.2-0.1-0.4-0.4-0.4h-7.5c-0.2,0-0.4,0.1-0.6,0.3c-0.8,1.5-1.6,2.8-2.4,4
		c-0.3,0.4-0.7,0.6-1.2,0.7c-0.1,0-0.2,0-0.3,0c-0.4,0-0.8-0.1-1.2-0.4c-0.4-0.3-0.6-0.6-0.7-1.1c0-0.1,0-0.2,0-0.3
		c0-0.3,0.1-0.6,0.4-1c2-2.6,3.7-6.1,5-10.4c0.2-0.5,0.5-0.9,0.9-1.1c0.3-0.2,0.6-0.3,0.9-0.3c0.2,0,0.3,0,0.4,0.1
		c0.5,0.1,0.9,0.4,1.1,0.8c0.2,0.3,0.2,0.6,0.2,0.8c0,0.2,0,0.4-0.1,0.6c-0.3,1-0.8,2.2-1.2,3.5c-0.1,0.1-0.1,0.2,0,0.2
		s0.1,0.1,0.2,0.1h6c0.2,0,0.4-0.1,0.4-0.4v-4.8c0-0.5,0.2-0.9,0.5-1.3c0.4-0.4,0.8-0.5,1.2-0.5c0.5,0,0.9,0.2,1.3,0.5
		c0.4,0.4,0.5,0.8,0.5,1.3V15c0,0.2,0.1,0.4,0.4,0.4h10.9c0.5,0,0.9,0.2,1.2,0.5c0.3,0.3,0.5,0.7,0.5,1.2s-0.2,0.9-0.5,1.2
		c-0.3,0.3-0.7,0.5-1.2,0.5H182c-0.2,0-0.4,0.1-0.4,0.4v6.7c0,0.2,0.1,0.4,0.4,0.4h9.6c0.5,0,0.9,0.2,1.2,0.5s0.5,0.7,0.5,1.2
		s-0.2,0.8-0.5,1.2c-0.3,0.3-0.7,0.5-1.2,0.5H182c-0.2,0-0.4,0.1-0.4,0.4L181.7,37.9z"/>
	<path class="st1" d="M205.8,40.9c-0.2,0.3-0.5,0.5-0.9,0.6c-0.4,0.1-0.7,0-1.1-0.2c-0.3-0.2-0.5-0.4-0.6-0.8c0-0.1,0-0.2,0-0.2
		c0-0.2,0.1-0.5,0.2-0.7c0.8-1.3,1.4-3,1.7-5.3c0.1-0.3,0.2-0.6,0.5-0.8c0.3-0.2,0.6-0.2,0.9-0.2c0.4,0.1,0.6,0.3,0.9,0.6
		c0.2,0.3,0.3,0.6,0.2,1C207.3,37.5,206.7,39.5,205.8,40.9z M208.2,31.6c-0.9,0-1.6-0.3-2.2-0.9c-0.6-0.6-0.9-1.4-0.9-2.2v-7.1
		c0-0.2-0.1-0.4-0.2-0.6c-0.5-0.6-0.9-1.2-0.9-2c0-0.2,0-0.3,0-0.5c0-0.6,0.2-1.1,0.5-1.6c1.4-2.2,2.5-4.7,3.3-7.5
		c0.1-0.4,0.4-0.8,0.8-1.1c0.3-0.2,0.6-0.3,1-0.3c0.1,0,0.2,0,0.2,0c0.4,0.1,0.8,0.2,1,0.6c0.2,0.2,0.2,0.5,0.2,0.7
		c0,0.2,0,0.3-0.1,0.4c-0.1,0.3-0.2,0.7-0.3,1.1c0,0.1,0,0.2,0,0.2c0,0.1,0.1,0.1,0.2,0.1h3.8c0,0,0.1,0,0.1,0c0.4-0.1,0.7,0,1,0.2
		l0.6,0.4c0.3,0.2,0.5,0.5,0.6,0.8c0.1,0.3,0.1,0.7-0.1,1c-0.6,1.3-1.2,2.4-1.8,3.4c-0.1,0.1-0.1,0.2,0,0.2c0,0.1,0.1,0.1,0.2,0.1h1
		c0.9,0,1.6,0.3,2.2,0.9c0.6,0.6,0.9,1.4,0.9,2.2v8.3c0,0.9-0.3,1.6-0.9,2.2c-0.6,0.6-1.4,0.9-2.2,0.9L208.2,31.6z M212.9,13.9
		c0-0.1,0-0.2,0-0.2c-0.1-0.1-0.1-0.1-0.2-0.1h-3c-0.2,0-0.4,0.1-0.5,0.3c-0.3,0.6-0.7,1.5-1.2,2.6c-0.1,0.1-0.1,0.2,0,0.2
		c0.1,0.1,0.1,0.1,0.2,0.1h2.8c0.3,0,0.5-0.1,0.6-0.3C212,15.7,212.5,14.8,212.9,13.9z M207.9,22.6c0,0.2,0.1,0.4,0.4,0.4h2.1
		c0.2,0,0.4-0.1,0.4-0.4v-2.5c0-0.2-0.1-0.4-0.4-0.4h-2.1c-0.2,0-0.4,0.1-0.4,0.4V22.6z M210.7,25.9c0-0.2-0.1-0.4-0.4-0.4h-2.1
		c-0.2,0-0.4,0.1-0.4,0.4v2.5c0,0.2,0.1,0.4,0.4,0.4h2.1c0.2,0,0.4-0.1,0.4-0.4V25.9z M209,34.3c0-0.2,0.1-0.5,0.2-0.7
		c0.2-0.2,0.5-0.4,0.8-0.4c0.3,0,0.6,0.1,0.9,0.2c0.3,0.2,0.4,0.4,0.5,0.7c0.2,1.6,0.3,3.1,0.4,4.8c0,0.3-0.1,0.6-0.3,0.9
		c-0.2,0.3-0.5,0.4-0.9,0.5c-0.3,0-0.6-0.1-0.8-0.3c-0.2-0.2-0.4-0.5-0.4-0.8c0-0.1,0-0.2,0-0.3L209,34.3z M212.7,34.5
		c0-0.1,0-0.2,0-0.3c0-0.2,0-0.3,0.1-0.5c0.2-0.3,0.4-0.4,0.6-0.5c0.3-0.1,0.6,0,0.9,0.1c0.3,0.2,0.5,0.4,0.6,0.7
		c0.5,1.5,0.9,2.9,1.2,4.4c0.1,0.3,0,0.6-0.2,0.9c-0.2,0.3-0.5,0.5-0.8,0.6c-0.3,0.1-0.6,0-0.8-0.2c-0.3-0.2-0.4-0.4-0.5-0.7
		C213.6,37.6,213.2,36.1,212.7,34.5z M215.7,22.9c0.2,0,0.4-0.1,0.4-0.4v-2.5c0-0.2-0.1-0.4-0.4-0.4h-2.1c-0.2,0-0.4,0.1-0.4,0.4
		v2.5c0,0.2,0.1,0.4,0.4,0.4H215.7z M215.7,28.7c0.2,0,0.4-0.1,0.4-0.4v-2.5c0-0.2-0.1-0.4-0.4-0.4h-2.1c-0.2,0-0.4,0.1-0.4,0.4v2.5
		c0,0.2,0.1,0.4,0.4,0.4H215.7z M216.5,34.1c-0.1-0.2-0.1-0.3-0.1-0.4c0-0.1,0-0.2,0.1-0.4c0.1-0.3,0.3-0.5,0.6-0.6
		c0.3-0.1,0.6-0.1,0.9,0c0.3,0.1,0.5,0.3,0.7,0.6c0.8,1.6,1.5,3.2,2,4.6c0.1,0.3,0.1,0.7-0.1,1c-0.2,0.3-0.4,0.5-0.7,0.6
		c-0.3,0.1-0.6,0.1-0.9-0.1c-0.3-0.2-0.5-0.4-0.6-0.7C217.9,37.3,217.3,35.8,216.5,34.1z M235.6,29.5c0.4,0,0.8,0.2,1.1,0.5
		c0.3,0.3,0.5,0.7,0.5,1.1c0,0.4-0.2,0.8-0.5,1.1c-0.3,0.3-0.7,0.5-1.1,0.5h-5.5c-0.2,0-0.4,0.1-0.4,0.4v7.2c0,0.5-0.2,0.9-0.5,1.2
		c-0.3,0.3-0.7,0.5-1.2,0.5s-0.9-0.2-1.2-0.5c-0.3-0.3-0.5-0.7-0.5-1.2V33c0-0.2-0.1-0.4-0.4-0.4h-4.8c-0.4,0-0.8-0.2-1.1-0.5
		s-0.4-0.7-0.4-1.1c0-0.4,0.2-0.8,0.4-1.1c0.3-0.3,0.6-0.5,1.1-0.5h4.8c0.2,0,0.4-0.1,0.4-0.4v-3.7c0-0.2-0.1-0.4-0.4-0.4h-3.8
		c-0.4,0-0.8-0.2-1.1-0.4c-0.3-0.3-0.4-0.6-0.4-1.1c0-0.4,0.2-0.8,0.4-1.1c0.3-0.3,0.6-0.4,1.1-0.4h3.8c0.2,0,0.4-0.1,0.4-0.4v-3.4
		c0-0.2-0.1-0.4-0.4-0.4h-4.5c-0.4,0-0.8-0.2-1.1-0.5s-0.5-0.7-0.5-1.1c0-0.4,0.2-0.8,0.5-1.1c0.3-0.3,0.7-0.4,1.1-0.4h1.4
		c0.1,0,0.2,0,0.2-0.1c0.1-0.1,0.1-0.2,0.1-0.2c-0.4-1.5-0.9-3-1.7-4.6c-0.2-0.4-0.2-0.7,0-1.1c0.2-0.4,0.4-0.6,0.8-0.7
		c0.2-0.1,0.4-0.1,0.6-0.1s0.4,0,0.6,0.1c0.4,0.2,0.7,0.4,0.9,0.8c0.6,1.2,1.1,2.5,1.5,3.6c0.1,0.2,0.1,0.4,0.1,0.6
		c0,0.2-0.1,0.5-0.2,0.8c-0.2,0.4-0.6,0.8-1,1v0.1h6.6c0,0,0,0,0-0.1c-0.5-0.2-0.8-0.5-1-0.9c-0.1-0.2-0.2-0.4-0.2-0.7
		c0-0.2,0.1-0.5,0.2-0.7c0.5-1.1,0.9-2.2,1.3-3.3c0.2-0.5,0.5-0.9,0.9-1.1c0.3-0.2,0.6-0.2,0.9-0.2c0.2,0,0.3,0,0.5,0.1
		c0.5,0.1,0.8,0.4,1,0.8c0.1,0.2,0.2,0.4,0.2,0.6c0,0.2-0.1,0.4-0.2,0.6c-0.9,2.1-1.7,3.7-2.2,4.6c0,0.1,0,0.2,0,0.2
		c0,0.1,0.1,0.1,0.2,0.1h2c0.4,0,0.8,0.2,1.1,0.4c0.3,0.3,0.5,0.6,0.5,1.1c0,0.4-0.2,0.8-0.5,1.1c-0.3,0.3-0.7,0.5-1.1,0.5h-4.7
		c-0.2,0-0.4,0.1-0.4,0.4v3.4c0,0.2,0.1,0.4,0.4,0.4h4c0.4,0,0.8,0.2,1.1,0.4c0.3,0.3,0.4,0.6,0.4,1.1c0,0.4-0.2,0.8-0.4,1.1
		c-0.3,0.3-0.6,0.4-1.1,0.4h-4c-0.2,0-0.4,0.1-0.4,0.4v3.7c0,0.2,0.1,0.4,0.4,0.4H235.6z"/>
	<g>
		<defs>
			<rect id="SVGID_1_" x="88.5" y="50.2" width="9" height="11.6"/>
		</defs>
		<clipPath id="SVGID_00000042014833666941971120000008880371411986314154_">
			<use xlink:href="#SVGID_1_"  style="overflow:visible;"/>
		</clipPath>
		<g style="clip-path:url(#SVGID_00000042014833666941971120000008880371411986314154_);">
			<path class="st1" d="M92.8,61.6c-0.2,0-0.5-0.1-0.7-0.2c-0.2-0.2-0.3-0.4-0.3-0.6v-3.3c0-0.1,0-0.2-0.1-0.2l-3.2-6.1
				c0-0.1-0.1-0.2-0.1-0.2c0-0.1,0-0.2,0.1-0.3c0.1-0.2,0.3-0.2,0.5-0.2h0.2c0.3,0,0.6,0.1,0.8,0.2c0.2,0.2,0.4,0.3,0.6,0.6l1,2.2
				c0.6,1.2,0.9,2,1.1,2.4c0,0,0,0,0.1,0c0,0,0,0,0.1,0c0-0.1,0.2-0.5,0.5-1.1c0.3-0.6,0.5-1.1,0.7-1.4l1.1-2.2
				c0.1-0.2,0.3-0.4,0.6-0.6c0.2-0.2,0.5-0.2,0.8-0.2h0.1c0.2,0,0.4,0.1,0.5,0.3c0.1,0.1,0.1,0.2,0.1,0.3c0,0.1,0,0.2-0.1,0.2
				l-3.3,6.1c0,0.1-0.1,0.1-0.1,0.2v3.3c0,0.2-0.1,0.4-0.3,0.6C93.3,61.6,93.1,61.6,92.8,61.6z"/>
		</g>
	</g>
	<g>
		<defs>
			<rect id="SVGID_00000157303566435948886680000013376466130771709878_" x="105.5" y="50.2" width="10" height="11.6"/>
		</defs>
		<clipPath id="SVGID_00000032650264359664698690000014639404672698528935_">
			<use xlink:href="#SVGID_00000157303566435948886680000013376466130771709878_"  style="overflow:visible;"/>
		</clipPath>
		<g style="clip-path:url(#SVGID_00000032650264359664698690000014639404672698528935_);">
			<path class="st1" d="M110.1,61.8c-3.1,0-4.6-1.7-4.6-5v-5.5c0-0.2,0.1-0.4,0.3-0.6c0.2-0.2,0.4-0.2,0.7-0.2h0
				c0.2,0,0.5,0.1,0.7,0.2c0.2,0.2,0.3,0.4,0.3,0.6V57c0,2.2,0.9,3.4,2.6,3.4c1.8,0,2.7-1.1,2.7-3.4v-5.7c0-0.2,0.1-0.4,0.3-0.6
				c0.2-0.2,0.4-0.2,0.6-0.2c0.2,0,0.5,0.1,0.7,0.2c0.2,0.2,0.3,0.4,0.3,0.6v5.5C114.6,60.2,113.1,61.8,110.1,61.8z"/>
		</g>
	</g>
	<g>
		<defs>
			<rect id="SVGID_00000048488277713914986320000004768058309265078461_" x="122.5" y="50.2" width="11" height="11.6"/>
		</defs>
		<clipPath id="SVGID_00000117662477788941681970000006896288871662130318_">
			<use xlink:href="#SVGID_00000048488277713914986320000004768058309265078461_"  style="overflow:visible;"/>
		</clipPath>
		<g style="clip-path:url(#SVGID_00000117662477788941681970000006896288871662130318_);">
			<path class="st1" d="M131.9,61.6c-0.3,0-0.5-0.1-0.8-0.2c-0.2-0.2-0.4-0.4-0.5-0.6l-0.7-2.2c0-0.1-0.1-0.1-0.2-0.1h-4
				c-0.1,0-0.2,0-0.2,0.1l-0.7,2.2c-0.1,0.2-0.2,0.5-0.5,0.6c-0.2,0.2-0.5,0.2-0.8,0.2h-0.1c-0.2,0-0.4-0.1-0.6-0.3
				c-0.1-0.1-0.1-0.2-0.1-0.3c0-0.1,0-0.1,0.1-0.2l3.5-9.5c0.1-0.2,0.2-0.4,0.5-0.6c0.2-0.2,0.5-0.2,0.8-0.2h0.3
				c0.3,0,0.5,0.1,0.8,0.2c0.2,0.2,0.4,0.3,0.5,0.6l3.5,9.5c0,0.1,0.1,0.1,0.1,0.2c0,0.1-0.1,0.2-0.2,0.3c-0.1,0.2-0.3,0.3-0.6,0.3
				H131.9z M126.1,57C126.1,57,126.1,57,126.1,57C126.2,57.1,126.2,57.1,126.1,57l3.2,0.1c0,0,0.1,0,0.1,0c0,0,0-0.1,0-0.1l-0.5-1.4
				c-0.2-0.6-0.6-1.8-1.1-3.7c0,0,0,0-0.1,0s0,0,0,0c-0.3,1.1-0.7,2.3-1.1,3.7L126.1,57z"/>
		</g>
	</g>
	<g>
		<defs>
			<rect id="SVGID_00000087383958654222401490000007899853826130901932_" x="140.5" y="50.2" width="10" height="11.6"/>
		</defs>
		<clipPath id="SVGID_00000134208569754717844230000002372910205963336578_">
			<use xlink:href="#SVGID_00000087383958654222401490000007899853826130901932_"  style="overflow:visible;"/>
		</clipPath>
		<g style="clip-path:url(#SVGID_00000134208569754717844230000002372910205963336578_);">
			<path class="st1" d="M142.9,61.4c-0.2,0.2-0.4,0.2-0.7,0.2c-0.2,0-0.5-0.1-0.6-0.2c-0.2-0.2-0.3-0.4-0.3-0.6v-9.5
				c0-0.2,0.1-0.4,0.3-0.6c0.2-0.2,0.4-0.2,0.7-0.2h0.1c0.3,0,0.6,0.1,0.8,0.2c0.2,0.1,0.5,0.3,0.6,0.6l3.6,5.8l1.3,2.3
				c0,0,0,0,0.1,0s0,0,0,0c-0.2-1.9-0.2-3.1-0.2-3.7v-4.4c0-0.2,0.1-0.4,0.3-0.6s0.4-0.2,0.7-0.2c0.2,0,0.5,0.1,0.6,0.2
				c0.2,0.2,0.3,0.4,0.3,0.6v9.5c0,0.2-0.1,0.4-0.3,0.6c-0.2,0.2-0.4,0.2-0.7,0.2h-0.1c-0.3,0-0.6-0.1-0.8-0.2
				c-0.2-0.1-0.5-0.3-0.6-0.6l-3.6-5.8l-1.3-2.3c0,0,0,0-0.1,0s0,0,0,0c0.2,1.9,0.2,3.1,0.2,3.6v4.4C143.2,61,143.1,61.2,142.9,61.4
				z"/>
		</g>
	</g>
	<g>
		<defs>
			<rect id="SVGID_00000174598123797839858960000004969429510209545131_" x="170.5" y="50.2" width="8" height="11.6"/>
		</defs>
		<clipPath id="SVGID_00000111905419756179837780000015113498384643267723_">
			<use xlink:href="#SVGID_00000174598123797839858960000004969429510209545131_"  style="overflow:visible;"/>
		</clipPath>
		<g style="clip-path:url(#SVGID_00000111905419756179837780000015113498384643267723_);">
			<path class="st1" d="M171.6,61.6c-0.2,0-0.5-0.1-0.7-0.2c-0.2-0.2-0.3-0.4-0.3-0.6v-9.5c0-0.2,0.1-0.4,0.3-0.6
				c0.2-0.2,0.4-0.2,0.7-0.2h5.5c0.2,0,0.4,0.1,0.6,0.2s0.2,0.3,0.2,0.5c0,0.2-0.1,0.4-0.2,0.5c-0.2,0.2-0.3,0.2-0.6,0.2h-4.4
				c-0.1,0-0.1,0-0.1,0.1v3.2c0,0.1,0,0.1,0.1,0.1h3.6c0.2,0,0.4,0.1,0.6,0.2c0.2,0.2,0.2,0.3,0.2,0.5c0,0.2-0.1,0.4-0.2,0.5
				c-0.2,0.2-0.3,0.2-0.6,0.2h-3.6c-0.1,0-0.1,0-0.1,0.1v3.8c0,0.2-0.1,0.4-0.3,0.6C172.1,61.6,171.9,61.6,171.6,61.6z"/>
		</g>
	</g>
	<g>
		<defs>
			<rect id="SVGID_00000059270456280679218540000001132902899258225851_" x="185.5" y="50.2" width="12" height="11.6"/>
		</defs>
		<clipPath id="SVGID_00000008138296817408478040000004026099529538651288_">
			<use xlink:href="#SVGID_00000059270456280679218540000001132902899258225851_"  style="overflow:visible;"/>
		</clipPath>
		<g style="clip-path:url(#SVGID_00000008138296817408478040000004026099529538651288_);">
			<path class="st1" d="M195.2,60.2c-1,1.1-2.3,1.6-3.9,1.6c-1.6,0-2.9-0.5-3.9-1.6c-1-1.1-1.5-2.5-1.5-4.3s0.5-3.2,1.5-4.2
				c1-1,2.3-1.6,3.9-1.6c1.6,0,2.9,0.5,3.9,1.6c1,1,1.5,2.5,1.5,4.2S196.2,59.2,195.2,60.2z M188.9,59.1c0.6,0.8,1.4,1.2,2.4,1.2
				s1.8-0.4,2.4-1.2c0.6-0.8,0.9-1.8,0.9-3.1s-0.3-2.3-0.9-3.1c-0.6-0.7-1.4-1.1-2.4-1.1s-1.8,0.4-2.4,1.1c-0.6,0.7-0.9,1.8-0.9,3.1
				S188.2,58.4,188.9,59.1z"/>
		</g>
	</g>
	<g>
		<defs>
			<rect id="SVGID_00000159461464109357878520000009926598791796699323_" x="204.5" y="50.2" width="12" height="11.6"/>
		</defs>
		<clipPath id="SVGID_00000026877593639583517100000017122908385688819360_">
			<use xlink:href="#SVGID_00000159461464109357878520000009926598791796699323_"  style="overflow:visible;"/>
		</clipPath>
		<g style="clip-path:url(#SVGID_00000026877593639583517100000017122908385688819360_);">
			<path class="st1" d="M214.4,60.2c-1,1.1-2.3,1.6-3.9,1.6c-1.6,0-2.9-0.5-3.9-1.6c-1-1.1-1.5-2.5-1.5-4.3s0.5-3.2,1.5-4.2
				c1-1,2.3-1.6,3.9-1.6c1.6,0,2.9,0.5,3.9,1.6c1,1,1.5,2.5,1.5,4.2S215.4,59.2,214.4,60.2z M208.1,59.1c0.6,0.8,1.4,1.2,2.4,1.2
				c1,0,1.8-0.4,2.4-1.2c0.6-0.8,0.9-1.8,0.9-3.1s-0.3-2.3-0.9-3.1c-0.6-0.7-1.4-1.1-2.4-1.1c-1,0-1.8,0.4-2.4,1.1
				c-0.6,0.7-0.9,1.8-0.9,3.1C207.2,57.3,207.5,58.4,208.1,59.1z"/>
		</g>
	</g>
	<g>
		<defs>
			<rect id="SVGID_00000139974976877386759220000004591433406799288728_" x="224.5" y="50.2" width="9.8" height="11.6"/>
		</defs>
		<clipPath id="SVGID_00000152958983184857953650000015529036167233945753_">
			<use xlink:href="#SVGID_00000139974976877386759220000004591433406799288728_"  style="overflow:visible;"/>
		</clipPath>
		<g style="clip-path:url(#SVGID_00000152958983184857953650000015529036167233945753_);">
			<path class="st1" d="M226.1,61.6c-0.2,0-0.5-0.1-0.7-0.2c-0.2-0.2-0.3-0.4-0.3-0.6v-9.5c0-0.2,0.1-0.4,0.3-0.6
				c0.2-0.2,0.4-0.2,0.7-0.2h2.2c1.9,0,3.4,0.5,4.4,1.4c1,0.9,1.5,2.3,1.5,4.1s-0.5,3.2-1.5,4.2c-1,1-2.4,1.5-4.3,1.5H226.1z
				 M227.1,60.1c0,0.1,0,0.1,0.1,0.1h1c1.3,0,2.3-0.3,3-1.1c0.7-0.7,1-1.8,1-3.1c0-2.7-1.4-4.1-4.1-4.1h-1c-0.1,0-0.1,0-0.1,0.1
				V60.1z"/>
		</g>
	</g>
</g>
</svg>
