<svg width="100" height="149" viewBox="0 0 100 149" fill="none" xmlns="http://www.w3.org/2000/svg">
<path fill-rule="evenodd" clip-rule="evenodd" d="M53.8071 20.369C46.5138 15.3459 37.2582 12.9654 26.5068 14.1726C24.5853 14.3884 22.8572 12.9641 22.647 10.9914C22.4369 9.01868 23.8242 7.24455 25.7457 7.02879C37.9719 5.65593 48.9114 8.34348 57.7069 14.4011C66.4916 20.4513 72.9244 29.7157 76.4086 41.1328C76.9865 43.0266 75.9597 45.0427 74.1151 45.636C72.2705 46.2293 70.3067 45.1751 69.7288 43.2814C66.6608 33.2283 61.1111 25.3994 53.8071 20.369Z" fill="#78AA8C"/>
<path fill-rule="evenodd" clip-rule="evenodd" d="M50.6001 7.19046C27.015 6.86708 7.4734 26.2667 7.0071 50.4575C6.7755 63.7565 12.234 75.7319 21.0859 84.0012L21.0889 84.004C21.9621 84.8217 23.1515 85.2146 24.3554 85.0641C27.8205 84.6294 33.4118 83.6455 38.632 81.5082C43.945 79.333 48.2122 76.2369 50.029 71.9978C50.8075 70.1814 52.8729 69.3568 54.6422 70.156C56.4115 70.9553 57.2147 73.0757 56.4362 74.8921C53.5139 81.7107 47.1539 85.756 41.225 88.1834C35.2033 90.6489 28.9378 91.7291 25.2044 92.1975L25.2036 92.1976C21.9925 92.5996 18.7668 91.5555 16.3733 89.3151C6.09076 79.7085 -0.261807 65.7741 0.00828433 50.3253L0.00840091 50.319C0.549011 22.172 23.2635 -0.371895 50.6944 0.00464914L50.6951 0.0046582C77.7389 0.381189 99.5892 22.7934 99.9946 50.5386L99.9946 50.5396C100.4 78.8133 77.8556 102.478 50.3082 102.637L50.2886 99.0434L50.3093 102.637C50.3089 102.637 50.3086 102.637 50.3082 102.637C43.7899 102.676 37.5555 101.428 31.8418 99.1491C30.04 98.4305 29.1468 96.3483 29.8468 94.4986C30.5469 92.6488 32.575 91.7318 34.3768 92.4505C39.2898 94.4101 44.6516 95.4843 50.2679 95.4502L50.2689 95.4502C73.9184 95.314 93.3438 74.9323 92.9954 50.6454C92.9954 50.6458 92.9954 50.6461 92.9954 50.6464L96.495 50.5925L92.9954 50.6454C92.6463 26.789 73.8557 7.51461 50.6008 7.19047L50.6476 3.59756L50.6001 7.19046Z" fill="#78AA8C"/>
<path fill-rule="evenodd" clip-rule="evenodd" d="M2.43115 51.4218C2.43115 49.4374 3.99816 47.8286 5.93115 47.8286H46.6804C48.6134 47.8286 50.1804 49.4374 50.1804 51.4218C50.1804 53.4063 48.6134 55.0151 46.6804 55.0151H5.93115C3.99816 55.0151 2.43115 53.4063 2.43115 51.4218Z" fill="#78AA8C"/>
<path fill-rule="evenodd" clip-rule="evenodd" d="M2.96969 38.6134C2.96969 36.6289 4.53669 35.0201 6.46969 35.0201H52.7479C56.578 35.0201 59.6523 37.3589 61.6163 40.3125C63.5925 43.2844 64.7029 47.1905 64.7029 51.3297C64.7029 55.4688 63.5925 59.3749 61.6163 62.3468C59.6523 65.3004 56.578 67.6392 52.7479 67.6392H5.93115C3.99816 67.6392 2.43115 66.0304 2.43115 64.0459C2.43115 62.0615 3.99816 60.4527 5.93115 60.4527H52.7479C53.5851 60.4527 54.7384 59.9441 55.835 58.2949C56.9195 56.6642 57.7029 54.2121 57.7029 51.3297C57.7029 48.4472 56.9195 45.9952 55.835 44.3644C54.7384 42.7152 53.5851 42.2066 52.7479 42.2066H6.46969C4.53669 42.2066 2.96969 40.5979 2.96969 38.6134Z" fill="#78AA8C"/>
<path fill-rule="evenodd" clip-rule="evenodd" d="M30.2869 64.3974C29.7348 62.5037 27.795 61.4224 25.9459 61.9811C24.0915 62.5414 23.0307 64.5389 23.5764 66.4426L26.934 65.4282C23.5764 66.4426 23.5771 66.4449 23.5778 66.4473L23.5793 66.4526L23.5828 66.4649L23.5921 66.4961C23.5991 66.5198 23.6081 66.5494 23.619 66.5847C23.6408 66.6553 23.6705 66.7485 23.7086 66.8627C23.7847 67.0911 23.8948 67.404 24.0436 67.7876C24.3408 68.5538 24.7947 69.6079 25.4447 70.8377C26.7415 73.2916 28.8421 76.4885 32.0732 79.4859C38.6696 85.6052 49.5374 90.4797 66.5852 87.3963C68.4888 87.052 69.7602 85.1885 69.4248 83.2341C69.0894 81.2797 67.2743 79.9745 65.3707 80.3188C50.3216 83.0407 41.6675 78.7005 36.7662 74.1538C34.2484 71.8181 32.6061 69.3192 31.5974 67.4105C31.0945 66.459 30.7549 65.6652 30.5469 65.1287C30.443 64.861 30.3725 64.6589 30.3312 64.5351C30.3106 64.4732 30.2973 64.4311 30.2909 64.4103C30.289 64.4041 30.2876 64.3998 30.2869 64.3974C30.2869 64.3974 30.2869 64.3974 30.2869 64.3974Z" fill="#78AA8C"/>
<path fill-rule="evenodd" clip-rule="evenodd" d="M20.0234 25.6207C20.0234 23.6362 21.5904 22.0275 23.5234 22.0275H37.1664C39.0994 22.0275 40.6664 23.6362 40.6664 25.6207C40.6664 27.6052 39.0994 29.2139 37.1664 29.2139H23.5234C21.5904 29.2139 20.0234 27.6052 20.0234 25.6207Z" fill="#78AA8C"/>
<path d="M1.7998 116.616C1.7998 116.049 1.98942 115.581 2.36864 115.19C2.74787 114.799 3.2219 114.604 3.75282 114.604L19.1114 114.584C19.6613 114.584 20.1164 114.779 20.4956 115.17C20.8748 115.561 21.0645 116.049 21.0645 116.597L21.0834 134.376C21.0834 134.669 20.9696 134.923 20.7611 135.138C20.5525 135.353 20.306 135.47 20.0216 135.47H19.8699C19.6044 135.47 19.3959 135.373 19.2252 135.197C19.0546 135.001 18.9598 134.786 18.9598 134.552C18.9598 134.474 18.9218 134.435 18.846 134.435L3.94243 134.454C3.86658 134.454 3.82866 134.493 3.82866 134.572C3.82866 134.826 3.73385 135.04 3.5632 135.216C3.37359 135.412 3.16502 135.49 2.93748 135.49H2.82371C2.53929 135.49 2.2928 135.392 2.10318 135.197C1.91357 135.001 1.7998 134.747 1.7998 134.454V116.616ZM3.84762 132.227C3.84762 132.383 3.92347 132.461 4.07516 132.461L18.7512 132.442C18.9029 132.442 18.9787 132.364 18.9787 132.207L18.9598 116.811C18.9598 116.655 18.8839 116.577 18.7322 116.577L4.0562 116.597C3.90451 116.597 3.82866 116.675 3.82866 116.831L3.84762 132.227ZM16.8551 127.167C16.8551 127.733 16.6654 128.202 16.2862 128.593C15.907 128.984 15.433 129.179 14.902 129.179H14.1815C14.1436 129.179 14.1246 129.199 14.1246 129.218C14.1246 129.238 14.1246 129.257 14.1626 129.257C15.3002 129.707 16.2862 130.175 17.1395 130.644C17.3101 130.762 17.386 130.918 17.386 131.113C17.386 131.309 17.2722 131.445 17.0826 131.524C16.8551 131.641 16.6275 131.68 16.381 131.68C16.0587 131.68 15.7553 131.582 15.433 131.406C14.8072 131.016 14.1057 130.664 13.3472 130.312C13.1386 130.195 13.0249 130.039 13.0059 129.785C12.987 129.55 13.0628 129.355 13.2714 129.238C13.2903 129.218 13.2903 129.199 13.2903 129.199C13.2903 129.179 13.2714 129.179 13.2524 129.179H9.38431C9.36535 129.179 9.36535 129.179 9.36535 129.199C9.36535 129.199 9.36535 129.218 9.38431 129.238C9.61185 129.316 9.74458 129.472 9.7825 129.726C9.82042 129.98 9.72562 130.175 9.51704 130.312C8.72067 130.801 7.84845 131.231 6.91935 131.621C6.72973 131.68 6.57804 131.699 6.42635 131.699C6.10401 131.699 5.78167 131.563 5.49725 131.289C5.36452 131.172 5.30764 131.016 5.34556 130.82C5.38348 130.625 5.47829 130.527 5.64894 130.469C6.80558 130.097 7.75364 129.707 8.47417 129.296C8.51209 129.277 8.51209 129.257 8.51209 129.218C8.51209 129.179 8.49313 129.179 8.45521 129.179H7.90533C7.35546 129.179 6.90039 128.984 6.52116 128.593C6.14194 128.202 5.95232 127.714 5.95232 127.167V123.923C5.95232 123.357 6.14194 122.888 6.52116 122.497C6.90039 122.106 7.37442 121.911 7.90533 121.911H14.8831C15.433 121.911 15.888 122.106 16.2673 122.497C16.6465 122.888 16.8361 123.376 16.8361 123.923L16.8551 127.167ZM14.2953 117.73C14.7504 117.73 15.1296 117.886 15.4519 118.218C15.7743 118.55 15.9449 118.941 15.9449 119.41C15.9449 119.879 15.7743 120.27 15.4519 120.602C15.1296 120.934 14.7314 121.09 14.2953 121.09H8.53105C8.09495 121.09 7.71572 120.934 7.39338 120.602C7.07104 120.27 6.90039 119.879 6.90039 119.41C6.90039 118.941 7.05208 118.55 7.39338 118.218C7.71572 117.886 8.09495 117.73 8.53105 117.73H14.2953ZM8.00014 123.025C7.84845 123.025 7.7726 123.103 7.7726 123.259V123.728C7.7726 123.884 7.84845 123.962 8.00014 123.962H14.7314C14.8831 123.962 14.9589 123.884 14.9589 123.728V123.259C14.9589 123.103 14.8831 123.025 14.7314 123.025H8.00014ZM8.00014 125.017C7.84845 125.017 7.7726 125.096 7.7726 125.252V125.74C7.7726 125.897 7.84845 125.975 8.00014 125.975H14.7314C14.8831 125.975 14.9589 125.897 14.9589 125.74V125.252C14.9589 125.096 14.8831 125.017 14.7314 125.017H8.00014ZM8.00014 127.069C7.84845 127.069 7.7726 127.147 7.7726 127.303V127.87C7.7726 128.026 7.84845 128.104 8.00014 128.104H14.7314C14.8831 128.104 14.9589 128.026 14.9589 127.87V127.303C14.9589 127.147 14.8831 127.069 14.7314 127.069H8.00014ZM13.8592 119.957C14.0109 119.957 14.0867 119.879 14.0867 119.723V119.078C14.0867 118.922 14.0109 118.843 13.8592 118.843H8.89132C8.73963 118.843 8.66378 118.922 8.66378 119.078V119.723C8.66378 119.879 8.73963 119.957 8.89132 119.957H13.8592Z" fill="#78AA8C"/>
<path d="M43.1485 127.518C43.395 127.342 43.6605 127.264 43.9449 127.264H43.9639C44.2673 127.264 44.5327 127.362 44.7603 127.538C44.9688 127.694 45.0636 127.909 45.0636 128.163C45.0636 128.437 44.9309 128.632 44.7223 128.769C43.5467 129.57 42.2763 130.312 40.9301 131.035C40.8922 131.074 40.8542 131.113 40.8542 131.152C40.8542 131.191 40.8732 131.231 40.9301 131.25C42.2574 131.914 43.8312 132.422 45.6325 132.755C45.86 132.794 46.0117 132.95 46.0875 133.165C46.1634 133.399 46.1444 133.614 46.0117 133.81C45.8031 134.122 45.5377 134.357 45.2532 134.513C45.0636 134.63 44.8551 134.669 44.6275 134.669C44.5327 134.669 44.4379 134.65 44.3431 134.63C39.982 133.634 36.9103 131.504 35.09 128.261C35.0142 128.124 34.9004 128.046 34.7487 128.046H32.0183C31.8666 128.046 31.7907 128.124 31.7907 128.28V131.953C31.7907 132.012 31.8097 132.071 31.8666 132.11C31.9045 132.149 31.9614 132.168 32.0183 132.168C32.3406 132.129 33.0422 132.071 34.0661 131.973C34.9383 131.895 35.6968 131.817 36.3225 131.758C36.3604 131.758 36.3794 131.758 36.4173 131.758C36.6259 131.758 36.8155 131.836 37.0051 131.993C37.1947 132.188 37.3085 132.403 37.3085 132.676C37.3085 132.95 37.2137 133.184 37.043 133.38C36.8724 133.575 36.6448 133.692 36.3604 133.731C33.1939 134.083 30.5772 134.337 28.4725 134.532C28.4346 134.532 28.4156 134.532 28.3777 134.532C28.1312 134.532 27.9226 134.454 27.7141 134.298C27.4865 134.122 27.3538 133.888 27.3159 133.595C27.2969 133.536 27.2969 133.477 27.2969 133.438C27.2969 133.223 27.3728 133.028 27.5055 132.852C27.6762 132.637 27.8847 132.52 28.1691 132.501C28.264 132.481 28.3588 132.481 28.4346 132.481C28.8518 132.442 29.1931 132.403 29.4585 132.383C29.6102 132.364 29.686 132.286 29.686 132.129V120.504C29.686 120.465 29.6671 120.426 29.6102 120.387C29.5723 120.348 29.5154 120.348 29.4775 120.387C28.8897 120.739 28.3398 121.051 27.8089 121.325C27.6572 121.403 27.5055 121.442 27.3348 121.442C27.2211 121.442 27.0884 121.422 26.9746 121.364C26.6902 121.266 26.4626 121.09 26.273 120.836C26.1592 120.68 26.0834 120.504 26.0834 120.328C26.0834 120.27 26.0834 120.192 26.1024 120.113C26.1782 119.84 26.3299 119.644 26.5764 119.527C28.1502 118.785 29.6481 117.866 31.0892 116.772C32.4354 115.776 33.5352 114.779 34.3884 113.763C34.8814 113.197 35.4692 112.904 36.1518 112.904C36.8344 112.904 37.4222 113.177 37.9342 113.724C39.0339 114.877 40.3044 115.932 41.7454 116.909C43.1675 117.866 44.5896 118.668 46.0307 119.273C46.2772 119.39 46.4478 119.566 46.5237 119.859C46.5616 119.957 46.5616 120.055 46.5616 120.133C46.5616 120.328 46.5047 120.485 46.4099 120.641C46.2203 120.934 45.9548 121.129 45.6514 121.227C45.5187 121.266 45.386 121.305 45.2722 121.305C45.0826 121.305 44.9119 121.266 44.7223 121.168C44.2483 120.914 43.7363 120.641 43.1865 120.328C43.1485 120.289 43.0917 120.289 43.0537 120.328C43.0158 120.367 42.9779 120.406 42.9779 120.446V127.479C42.9779 127.518 42.9969 127.538 43.0158 127.557C43.0348 127.577 43.0537 127.577 43.0917 127.557C43.0917 127.557 43.1106 127.538 43.1485 127.518ZM37.3274 119.254C37.3274 119.39 37.4033 119.469 37.536 119.469H41.461C41.4989 119.469 41.5179 119.449 41.5179 119.43C41.5179 119.39 41.5179 119.371 41.4989 119.351C39.2804 117.925 37.5739 116.499 36.3415 115.092C36.2277 114.975 36.1329 114.975 36.057 115.092C34.9004 116.499 33.2508 117.906 31.1081 119.351C31.0702 119.371 31.0702 119.39 31.0892 119.43C31.1081 119.469 31.1271 119.469 31.165 119.469H34.9383C35.071 119.469 35.1469 119.39 35.1469 119.254V118.433C35.1469 118.12 35.2607 117.866 35.4692 117.632C35.6778 117.417 35.9433 117.3 36.2466 117.3C36.55 117.3 36.8155 117.417 37.0241 117.632C37.2326 117.847 37.3464 118.12 37.3464 118.414L37.3274 119.254ZM31.9804 121.227C31.8287 121.227 31.7528 121.305 31.7528 121.461V122.653C31.7528 122.81 31.8287 122.888 31.9804 122.888H40.5698C40.7215 122.888 40.7973 122.81 40.7973 122.653V121.461C40.7973 121.305 40.7215 121.227 40.5698 121.227H31.9804ZM31.9804 124.568C31.8287 124.568 31.7528 124.646 31.7528 124.803V126.092C31.7528 126.248 31.8287 126.326 31.9804 126.326H40.5698C40.7215 126.326 40.7973 126.248 40.7973 126.092V124.803C40.7973 124.646 40.7215 124.568 40.5698 124.568H31.9804ZM42.2005 128.163C42.2384 128.144 42.2384 128.124 42.2194 128.085C42.2005 128.046 42.1815 128.046 42.1436 128.046H37.3274C37.2895 128.046 37.2516 128.065 37.2326 128.124C37.2137 128.163 37.2137 128.202 37.2516 128.241C37.7067 128.847 38.2376 129.413 38.8633 129.941C38.9771 130.039 39.1098 130.039 39.2425 129.961C40.2664 129.413 41.2524 128.808 42.2005 128.163Z" fill="#78AA8C"/>
<path d="M62.9572 131.738C62.9572 131.895 63.0331 131.973 63.1848 131.973H71.0916C71.376 131.973 71.6225 132.071 71.8311 132.286C72.0397 132.5 72.1345 132.754 72.1345 133.048C72.1345 133.341 72.0397 133.595 71.8311 133.81C71.6225 134.024 71.376 134.122 71.0916 134.122L52.6044 134.142C52.32 134.142 52.0735 134.044 51.8649 133.829C51.6563 133.614 51.5615 133.36 51.5615 133.067C51.5615 132.774 51.6563 132.52 51.8649 132.305C52.0735 132.09 52.32 131.992 52.6044 131.992H60.5112C60.6629 131.992 60.7388 131.914 60.7388 131.758V126.737C60.7388 126.58 60.6629 126.502 60.5112 126.502H55.1642C54.8987 126.502 54.6522 126.405 54.4436 126.19C54.2351 125.975 54.1403 125.74 54.1403 125.447C54.1403 125.154 54.2351 124.92 54.4436 124.705C54.6522 124.49 54.8797 124.392 55.1642 124.392H60.5112C60.6629 124.392 60.7388 124.314 60.7388 124.158V119.879C60.7388 119.723 60.6629 119.644 60.5112 119.644H55.8278C55.6761 119.644 55.5623 119.723 55.4865 119.859C55.0125 120.797 54.5195 121.637 54.0265 122.38C53.8369 122.653 53.5904 122.79 53.268 122.829C53.2112 122.849 53.1543 122.849 53.0784 122.849C52.813 122.849 52.5854 122.771 52.3579 122.614C52.1114 122.438 51.9597 122.204 51.9028 121.911C51.8839 121.833 51.8839 121.755 51.8839 121.696C51.8839 121.481 51.9597 121.286 52.1114 121.09C53.3818 119.41 54.4057 117.222 55.2021 114.506C55.2969 114.174 55.4865 113.939 55.7709 113.783C55.9605 113.666 56.1501 113.588 56.3587 113.588C56.4535 113.588 56.5483 113.607 56.6242 113.627C56.9465 113.685 57.1741 113.861 57.3257 114.135C57.4395 114.311 57.4774 114.486 57.4774 114.662C57.4774 114.779 57.4585 114.897 57.4016 115.014C57.193 115.678 56.9276 116.421 56.6431 117.222C56.6052 117.261 56.6052 117.319 56.6431 117.358C56.6811 117.398 56.719 117.437 56.7759 117.437H60.5112C60.6629 117.437 60.7388 117.358 60.7388 117.202V114.154C60.7388 113.842 60.8525 113.568 61.0611 113.353C61.2886 113.119 61.5351 113.021 61.8385 113.021C62.1419 113.021 62.4074 113.138 62.6159 113.353C62.8435 113.588 62.9383 113.842 62.9383 114.154V117.202C62.9383 117.358 63.0141 117.437 63.1658 117.437H69.935C70.2194 117.437 70.4659 117.554 70.6745 117.769C70.8831 117.984 70.9968 118.238 70.9968 118.531C70.9968 118.824 70.8831 119.078 70.6745 119.293C70.4659 119.508 70.2194 119.625 69.935 119.625H63.1658C63.0141 119.625 62.9383 119.703 62.9383 119.859V124.138C62.9383 124.294 63.0141 124.373 63.1658 124.373H69.1007C69.3851 124.373 69.6316 124.47 69.8402 124.685C70.0488 124.9 70.1436 125.135 70.1436 125.428C70.1436 125.721 70.0488 125.955 69.8402 126.17C69.6316 126.385 69.3851 126.483 69.1007 126.483H63.1658C63.0141 126.483 62.9383 126.561 62.9383 126.717L62.9572 131.738Z" fill="#78AA8C"/>
<path d="M78.7085 134.689C78.5948 134.884 78.4052 135.021 78.1587 135.06C77.9122 135.099 77.7036 135.06 77.495 134.943C77.3054 134.826 77.2106 134.669 77.1537 134.454C77.1348 134.415 77.1348 134.357 77.1348 134.298C77.1348 134.142 77.1727 134.005 77.2675 133.849C77.7605 133.048 78.1207 131.914 78.3293 130.469C78.3672 130.254 78.4621 130.078 78.6327 129.961C78.8034 129.843 78.993 129.804 79.1826 129.843C79.4101 129.902 79.5808 130.039 79.7135 130.215C79.8462 130.41 79.8841 130.605 79.8652 130.84C79.6377 132.54 79.2584 133.81 78.7085 134.689ZM80.2254 128.769C79.6756 128.769 79.2205 128.573 78.8413 128.183C78.4621 127.792 78.2724 127.303 78.2724 126.756V122.223C78.2724 122.087 78.2345 121.969 78.1587 121.872C77.8363 121.501 77.6278 121.09 77.5709 120.621C77.5519 120.504 77.5519 120.406 77.5519 120.328C77.5519 119.977 77.6467 119.625 77.8363 119.312C78.6896 117.906 79.3722 116.323 79.8841 114.525C79.96 114.252 80.1117 114.017 80.3582 113.842C80.5478 113.705 80.7564 113.627 80.9649 113.627C81.0218 113.627 81.0787 113.627 81.1166 113.646C81.3821 113.685 81.5907 113.803 81.7234 114.037C81.8372 114.193 81.8751 114.35 81.8751 114.506C81.8751 114.604 81.8561 114.701 81.8372 114.779C81.7613 114.994 81.6855 115.229 81.6286 115.463C81.6096 115.502 81.6096 115.561 81.6475 115.6C81.6665 115.639 81.7044 115.659 81.7424 115.659H84.0746C84.0936 115.659 84.1125 115.659 84.1504 115.639C84.378 115.581 84.5865 115.62 84.7762 115.756L85.1175 115.991C85.2881 116.108 85.4019 116.284 85.4588 116.499C85.5156 116.714 85.4967 116.929 85.3829 117.124C85.0037 117.925 84.6245 118.628 84.2642 119.293C84.2263 119.332 84.2263 119.39 84.2452 119.43C84.2642 119.469 84.3021 119.508 84.34 119.508H84.9468C85.4967 119.508 85.9518 119.703 86.331 120.094C86.7102 120.485 86.8998 120.973 86.8998 121.52V126.776C86.8998 127.342 86.7102 127.811 86.331 128.202C85.9518 128.593 85.4777 128.788 84.9468 128.788L80.2254 128.769ZM83.1076 117.554C83.1265 117.515 83.1076 117.456 83.0886 117.417C83.0507 117.378 83.0128 117.339 82.9748 117.339H81.1356C80.9839 117.339 80.8701 117.417 80.8133 117.554C80.6426 117.964 80.3961 118.531 80.0548 119.234C80.0169 119.273 80.0169 119.332 80.0548 119.371C80.0927 119.41 80.1306 119.449 80.1686 119.449H81.932C82.1026 119.449 82.2164 119.371 82.2733 119.234C82.5956 118.668 82.8611 118.101 83.1076 117.554ZM80.0358 123.044C80.0358 123.2 80.1117 123.279 80.2634 123.279H81.5527C81.7044 123.279 81.7803 123.2 81.7803 123.044V121.481C81.7803 121.325 81.7044 121.247 81.5527 121.247H80.2634C80.1117 121.247 80.0358 121.325 80.0358 121.481V123.044ZM81.7803 125.154C81.7803 124.998 81.7044 124.92 81.5527 124.92H80.2634C80.1117 124.92 80.0358 124.998 80.0358 125.154V126.717C80.0358 126.874 80.1117 126.952 80.2634 126.952H81.5527C81.7044 126.952 81.7803 126.874 81.7803 126.717V125.154ZM80.6995 130.488C80.6995 130.332 80.7374 130.195 80.8322 130.039C80.946 129.882 81.1166 129.785 81.3062 129.765C81.4959 129.746 81.6855 129.804 81.8561 129.921C82.0268 130.039 82.1216 130.195 82.1595 130.39C82.2922 131.387 82.3681 132.383 82.387 133.419C82.387 133.634 82.3112 133.829 82.1785 134.005C82.0268 134.181 81.8561 134.278 81.6286 134.318C81.439 134.337 81.2683 134.278 81.1166 134.122C80.9649 133.985 80.8891 133.81 80.8891 133.614C80.8891 133.556 80.8891 133.497 80.8891 133.419L80.6995 130.488ZM82.9938 130.625C82.9748 130.547 82.9748 130.469 82.9748 130.41C82.9748 130.293 82.9938 130.195 83.0507 130.078C83.1455 129.902 83.2782 129.804 83.4489 129.765C83.6385 129.726 83.8281 129.746 84.0177 129.843C84.2073 129.941 84.3211 130.078 84.378 130.273C84.7003 131.211 84.9278 132.149 85.0985 133.087C85.1364 133.282 85.0795 133.477 84.9658 133.673C84.852 133.868 84.6813 133.966 84.4728 134.024C84.2832 134.064 84.1125 134.044 83.9608 133.927C83.7902 133.81 83.6954 133.653 83.6574 133.458C83.5437 132.559 83.3161 131.621 82.9938 130.625ZM84.8899 123.259C85.0416 123.259 85.1175 123.181 85.1175 123.025V121.461C85.1175 121.305 85.0416 121.227 84.8899 121.227H83.5626C83.4109 121.227 83.3351 121.305 83.3351 121.461V123.025C83.3351 123.181 83.4109 123.259 83.5626 123.259H84.8899ZM84.8899 126.932C85.0416 126.932 85.1175 126.854 85.1175 126.698V125.135C85.1175 124.978 85.0416 124.9 84.8899 124.9H83.5626C83.4109 124.9 83.3351 124.978 83.3351 125.135V126.698C83.3351 126.854 83.4109 126.932 83.5626 126.932H84.8899ZM85.3829 130.39C85.345 130.293 85.3071 130.195 85.3071 130.117C85.3071 130.039 85.326 129.961 85.345 129.863C85.4019 129.687 85.5346 129.57 85.7053 129.492C85.8949 129.433 86.1034 129.433 86.2931 129.511C86.4827 129.589 86.6344 129.726 86.7292 129.902C87.2411 130.937 87.6583 131.914 87.9427 132.833C88.0185 133.048 87.9996 133.262 87.9048 133.458C87.81 133.653 87.6583 133.79 87.4497 133.868C87.2601 133.946 87.0894 133.927 86.8998 133.829C86.7102 133.731 86.5964 133.575 86.5396 133.38C86.2551 132.422 85.8759 131.426 85.3829 130.39ZM97.2527 127.46C97.4992 127.46 97.7267 127.557 97.9163 127.753C98.1059 127.948 98.2007 128.183 98.2007 128.437C98.2007 128.71 98.1059 128.925 97.9163 129.12C97.7267 129.316 97.4992 129.413 97.2527 129.413H93.8207C93.669 129.413 93.5931 129.492 93.5931 129.648V134.22C93.5931 134.532 93.4983 134.786 93.2898 135.001C93.0812 135.216 92.8347 135.314 92.5503 135.314C92.2659 135.314 92.0004 135.216 91.8108 135.001C91.6022 134.786 91.5074 134.532 91.5074 134.22V129.648C91.5074 129.492 91.4316 129.413 91.2799 129.413H88.284C88.0185 129.413 87.791 129.316 87.6014 129.12C87.4118 128.925 87.3359 128.691 87.3359 128.437C87.3359 128.183 87.4307 127.948 87.6014 127.753C87.791 127.557 87.9996 127.46 88.284 127.46H91.2799C91.4316 127.46 91.5074 127.382 91.5074 127.225V124.881C91.5074 124.724 91.4316 124.646 91.2799 124.646H88.9476C88.6822 124.646 88.4736 124.549 88.284 124.373C88.0944 124.197 88.0185 123.962 88.0185 123.689C88.0185 123.415 88.1133 123.181 88.284 123.005C88.4736 122.81 88.6822 122.731 88.9476 122.731H91.2799C91.4316 122.731 91.5074 122.653 91.5074 122.497V120.348C91.5074 120.192 91.4316 120.113 91.2799 120.113H88.4736C88.2081 120.113 87.9996 120.016 87.81 119.82C87.6203 119.625 87.5255 119.39 87.5255 119.117C87.5255 118.843 87.6203 118.609 87.81 118.433C87.9996 118.238 88.2271 118.16 88.4736 118.16H89.3269C89.3648 118.16 89.4217 118.14 89.4596 118.081C89.4975 118.042 89.5165 117.984 89.4975 117.945C89.251 117.007 88.9097 116.03 88.4546 115.014C88.3409 114.779 88.3409 114.545 88.4357 114.311C88.5305 114.076 88.6822 113.92 88.9097 113.842C89.0424 113.803 89.1752 113.763 89.2889 113.763C89.4027 113.763 89.5354 113.783 89.6682 113.842C89.9336 113.939 90.1043 114.115 90.237 114.35C90.6162 115.131 90.9386 115.913 91.1851 116.655C91.223 116.772 91.223 116.909 91.223 117.026C91.223 117.183 91.1851 117.339 91.1092 117.515C90.9765 117.788 90.7679 118.003 90.4835 118.12V118.16H94.5791C94.5981 118.16 94.5981 118.14 94.5981 118.12C94.2947 118.023 94.0861 117.827 93.9724 117.534C93.8965 117.398 93.8586 117.261 93.8586 117.104C93.8586 116.948 93.8965 116.811 93.9724 116.675C94.2757 115.952 94.5412 115.248 94.7687 114.565C94.8825 114.252 95.0532 114.017 95.3376 113.861C95.5272 113.744 95.6978 113.705 95.9064 113.705C96.0202 113.705 96.115 113.724 96.1908 113.744C96.4753 113.803 96.6838 113.978 96.7976 114.252C96.8545 114.369 96.8924 114.506 96.8924 114.643C96.8924 114.779 96.8545 114.916 96.7976 115.033C96.2098 116.382 95.7547 117.358 95.4134 117.945C95.3945 117.984 95.3945 118.042 95.4324 118.081C95.4513 118.12 95.4893 118.16 95.5272 118.16H96.7407C96.9872 118.16 97.2147 118.257 97.4044 118.433C97.594 118.628 97.6888 118.843 97.6888 119.117C97.6888 119.39 97.594 119.625 97.4044 119.82C97.2147 120.016 96.9872 120.113 96.7407 120.113H93.8207C93.669 120.113 93.5931 120.192 93.5931 120.348V122.497C93.5931 122.653 93.669 122.731 93.8207 122.731H96.3236C96.5701 122.731 96.7976 122.829 96.9872 123.005C97.1768 123.2 97.2527 123.415 97.2527 123.689C97.2527 123.962 97.1579 124.197 96.9872 124.373C96.8166 124.549 96.589 124.646 96.3236 124.646H93.8207C93.669 124.646 93.5931 124.724 93.5931 124.881V127.225C93.5931 127.382 93.669 127.46 93.8207 127.46H97.2527Z" fill="#78AA8C"/>
<path d="M4.49878 148.368C4.34232 148.368 4.18586 148.304 4.06851 148.199C3.95117 148.073 3.89249 147.947 3.89249 147.778V145.548C3.89249 145.484 3.87293 145.442 3.85338 145.4L1.83892 141.296C1.81936 141.254 1.7998 141.191 1.7998 141.128C1.7998 141.065 1.81936 141.002 1.85848 140.939C1.93671 140.833 2.0345 140.77 2.1714 140.77H2.26919C2.44521 140.77 2.62123 140.812 2.7777 140.918C2.93416 141.023 3.05151 141.149 3.12974 141.317L3.77514 142.791C4.12719 143.59 4.36188 144.138 4.49878 144.432C4.49878 144.453 4.51834 144.453 4.5379 144.453C4.55746 144.453 4.55746 144.453 4.57702 144.432C4.59657 144.348 4.71392 144.116 4.88994 143.717C5.06596 143.317 5.20287 143.001 5.30065 142.77L5.96562 141.296C6.04385 141.128 6.1612 141.002 6.31766 140.897C6.47412 140.791 6.65014 140.749 6.82617 140.749H6.88484C7.02174 140.749 7.13909 140.812 7.21732 140.939C7.25644 141.002 7.27599 141.065 7.27599 141.128C7.27599 141.191 7.25644 141.233 7.23688 141.296L5.16375 145.421C5.14419 145.463 5.12463 145.505 5.12463 145.548V147.757C5.12463 147.926 5.06596 148.052 4.94861 148.178C4.83127 148.304 4.69436 148.368 4.49878 148.368Z" fill="#78AA8C"/>
<path d="M15.4121 148.494C13.4759 148.494 12.5176 147.357 12.5176 145.106V141.36C12.5176 141.191 12.5763 141.065 12.6936 140.939C12.8109 140.812 12.9479 140.77 13.1239 140.77H13.1434C13.2999 140.77 13.4564 140.833 13.5737 140.939C13.691 141.065 13.7497 141.191 13.7497 141.36V145.19C13.7497 146.705 14.2973 147.463 15.4121 147.463C16.5465 147.463 17.1137 146.705 17.1137 145.19V141.339C17.1137 141.17 17.1723 141.044 17.2897 140.918C17.407 140.812 17.5439 140.749 17.7004 140.749C17.8569 140.749 18.0133 140.812 18.1111 140.918C18.2285 141.023 18.2871 141.17 18.2871 141.339V145.085C18.2871 147.357 17.3288 148.494 15.4121 148.494Z" fill="#78AA8C"/>
<path d="M29.2001 148.368C29.0241 148.368 28.8676 148.326 28.7112 148.22C28.5743 148.115 28.4765 147.968 28.4178 147.799L27.968 146.284C27.9484 146.242 27.9093 146.221 27.8702 146.221H25.3277C25.269 146.221 25.2299 146.242 25.2299 146.284L24.7605 147.799C24.7018 147.968 24.604 148.115 24.4671 148.22C24.3302 148.326 24.1542 148.368 23.9782 148.368H23.9391C23.7826 148.368 23.6653 148.305 23.587 148.178C23.5283 148.094 23.5088 148.031 23.5088 147.947C23.5088 147.905 23.5283 147.863 23.5479 147.799L25.7384 141.339C25.7971 141.17 25.8948 141.044 26.0513 140.939C26.1882 140.833 26.3642 140.791 26.5403 140.791H26.7358C26.9119 140.791 27.0683 140.833 27.2248 140.939C27.3812 141.044 27.479 141.17 27.5377 141.339L29.7282 147.799C29.7477 147.842 29.7673 147.884 29.7673 147.947C29.7673 148.031 29.7282 148.115 29.6695 148.178C29.5913 148.305 29.4739 148.368 29.3175 148.368H29.2001ZM25.5428 145.19C25.5428 145.211 25.5428 145.211 25.5624 145.232C25.5819 145.253 25.5819 145.253 25.6015 145.253H27.5768C27.5964 145.253 27.6159 145.253 27.6159 145.232C27.6355 145.211 27.6355 145.19 27.6355 145.19L27.3421 144.243C27.2052 143.843 26.9705 143.001 26.6185 141.738C26.6185 141.717 26.5989 141.717 26.5794 141.717C26.5598 141.717 26.5598 141.717 26.5598 141.738C26.3642 142.475 26.1295 143.317 25.8557 144.243L25.5428 145.19Z" fill="#78AA8C"/>
<path d="M36.1039 148.199C35.9865 148.305 35.8496 148.368 35.6932 148.368C35.5367 148.368 35.3998 148.305 35.2825 148.199C35.1651 148.094 35.1064 147.947 35.1064 147.799V141.36C35.1064 141.191 35.1651 141.065 35.2825 140.939C35.3998 140.812 35.5367 140.77 35.7127 140.77H35.7519C35.9279 140.77 36.1039 140.812 36.2799 140.918C36.4364 141.002 36.5733 141.149 36.6515 141.297L38.9202 145.232L39.7221 146.81C39.7221 146.831 39.7417 146.831 39.7612 146.831C39.7808 146.831 39.7808 146.831 39.7808 146.81C39.683 145.527 39.6243 144.706 39.6243 144.306V141.339C39.6243 141.17 39.683 141.044 39.8003 140.939C39.9177 140.834 40.0546 140.77 40.211 140.77C40.3675 140.77 40.5044 140.834 40.6218 140.939C40.7391 141.044 40.7978 141.191 40.7978 141.339V147.757C40.7978 147.926 40.7391 148.052 40.6218 148.178C40.5044 148.305 40.3675 148.347 40.1915 148.347H40.1524C39.9763 148.347 39.8003 148.305 39.6243 148.199C39.4678 148.115 39.3309 147.989 39.2527 147.821L36.984 143.864L36.1821 142.307C36.1821 142.286 36.1626 142.286 36.143 142.286C36.1235 142.286 36.1235 142.286 36.1235 142.307C36.2212 143.59 36.2799 144.411 36.2799 144.769V147.778C36.2799 147.947 36.2212 148.073 36.1039 148.199Z" fill="#78AA8C"/>
<path d="M54.2538 148.368C54.0973 148.368 53.9408 148.305 53.8235 148.199C53.7061 148.073 53.6475 147.947 53.6475 147.778V141.36C53.6475 141.191 53.7061 141.065 53.8235 140.939C53.9408 140.812 54.0777 140.77 54.2538 140.77H57.735C57.8719 140.77 58.0089 140.812 58.1066 140.918C58.2044 141.023 58.2631 141.128 58.2631 141.275C58.2631 141.423 58.2044 141.528 58.1066 141.633C58.0089 141.738 57.8915 141.781 57.735 141.781H54.9578C54.8992 141.781 54.8796 141.802 54.8796 141.844V144.011C54.8796 144.053 54.8992 144.074 54.9578 144.074H57.2265C57.3634 144.074 57.5003 144.117 57.5981 144.222C57.6959 144.327 57.7546 144.432 57.7546 144.58C57.7546 144.727 57.6959 144.832 57.5981 144.937C57.5003 145.043 57.383 145.085 57.2265 145.085H54.9578C54.8992 145.085 54.8796 145.106 54.8796 145.169V147.757C54.8796 147.926 54.8209 148.052 54.7036 148.178C54.5667 148.305 54.4298 148.368 54.2538 148.368Z" fill="#78AA8C"/>
<path d="M69.1178 147.421C68.492 148.136 67.6706 148.494 66.6731 148.494C65.6561 148.494 64.8542 148.136 64.2284 147.421C63.6025 146.705 63.2896 145.737 63.2896 144.537C63.2896 143.338 63.6025 142.37 64.2284 141.675C64.8542 140.981 65.6561 140.623 66.6731 140.623C67.6901 140.623 68.492 140.981 69.1178 141.675C69.7437 142.37 70.0566 143.338 70.0566 144.537C70.0566 145.737 69.7437 146.705 69.1178 147.421ZM65.128 146.663C65.5192 147.189 66.0277 147.463 66.6731 147.463C67.3185 147.463 67.827 147.189 68.2182 146.663C68.6093 146.137 68.8049 145.421 68.8049 144.537C68.8049 143.654 68.6093 142.959 68.2182 142.433C67.827 141.928 67.3185 141.654 66.6731 141.654C66.0277 141.654 65.5192 141.907 65.128 142.433C64.7369 142.938 64.5609 143.654 64.5609 144.537C64.5609 145.421 64.7369 146.137 65.128 146.663Z" fill="#78AA8C"/>
<path d="M81.2828 147.421C80.6569 148.136 79.8355 148.494 78.8381 148.494C77.8211 148.494 77.0192 148.136 76.3933 147.421C75.7675 146.705 75.4546 145.737 75.4546 144.537C75.4546 143.338 75.7675 142.37 76.3933 141.675C77.0192 140.981 77.8211 140.623 78.8381 140.623C79.8551 140.623 80.6569 140.981 81.2828 141.675C81.9086 142.37 82.2216 143.338 82.2216 144.537C82.2216 145.737 81.9086 146.705 81.2828 147.421ZM77.293 146.663C77.6842 147.189 78.1927 147.463 78.8381 147.463C79.4835 147.463 79.992 147.189 80.3831 146.663C80.7743 146.137 80.9699 145.421 80.9699 144.537C80.9699 143.654 80.7743 142.959 80.3831 142.433C79.992 141.928 79.4835 141.654 78.8381 141.654C78.1927 141.654 77.6842 141.907 77.293 142.433C76.9018 142.938 76.7258 143.654 76.7258 144.537C76.7063 145.421 76.9018 146.137 77.293 146.663Z" fill="#78AA8C"/>
<path d="M88.6561 148.368C88.4996 148.368 88.3432 148.305 88.2258 148.199C88.1085 148.073 88.0498 147.947 88.0498 147.778V141.36C88.0498 141.191 88.1085 141.065 88.2258 140.939C88.3432 140.812 88.4801 140.77 88.6561 140.77H90.0643C91.2573 140.77 92.1961 141.086 92.8415 141.738C93.4869 142.37 93.7998 143.317 93.7998 144.537C93.7998 145.758 93.4869 146.705 92.8415 147.379C92.1961 148.031 91.2964 148.368 90.1229 148.368H88.6561ZM89.2624 147.294C89.2624 147.358 89.2819 147.379 89.3406 147.379H89.9665C90.8075 147.379 91.4333 147.147 91.8831 146.663C92.3134 146.179 92.5285 145.463 92.5285 144.537C92.5285 142.685 91.668 141.738 89.9665 141.738H89.3406C89.2819 141.738 89.2624 141.76 89.2624 141.802V147.294Z" fill="#78AA8C"/>
</svg>
