<?xml version="1.0" encoding="UTF-8"?>
<svg id="_圖層_1" data-name="圖層 1" xmlns="http://www.w3.org/2000/svg" viewBox="0 0 573.06 796.53">
  <defs>
    <style>
      .cls-1 {
        font-family: GenJyuuGothic-Medium, 'Gen Jyuu Gothic';
        font-size: 49px;
        font-weight: 500;
      }

      .cls-1, .cls-2 {
        fill: #78aa8c;
      }

      .cls-3 {
        letter-spacing: .42em;
      }

      .cls-4 {
        letter-spacing: .43em;
      }

      .cls-5 {
        letter-spacing: .43em;
      }

      .cls-6 {
        fill: none;
        stroke: #78aa8c;
        stroke-linecap: round;
        stroke-linejoin: round;
        stroke-width: 40px;
      }

      .cls-7 {
        letter-spacing: .42em;
      }

      .cls-2 {
        font-family: GenJyuuGothicX-Monospace-Regular, 'Gen Jyuu Gothic X Monospace';
        font-size: 122px;
        letter-spacing: .07em;
      }
    </style>
  </defs>
  <g>
    <path class="cls-6" d="M153.63,59.38c128-14,225,55,261.5,171.5"/>
    <path class="cls-6" d="M304.61,400.36c-26.39,60.04-118.4,77.52-158.53,82.35-12.27,1.48-24.59-2.42-33.73-10.74-53.21-48.43-86.17-118.72-84.68-196.68C30.4,133.26,148.17,19.47,290.23,21.4c140.07,1.91,253.29,115.01,255.37,255.04,2.12,142.58-114.8,262.08-257.39,262.93-33.78,.2-66.06-6.06-95.7-17.63"/>
    <line class="cls-6" x1="41.13" y1="280.88" x2="268.13" y2="280.88"/>
    <path class="cls-6" d="M41.17,349.38H301.95c26.01,0,47.09-30.88,47.09-68.98s-21.08-68.98-47.09-68.98H44.17"/>
    <path class="cls-6" d="M158.13,356.88s38.7,131.53,217.5,100.03"/>
    <line class="cls-6" x1="215.13" y1="140.88" x2="139.13" y2="140.88"/>
  </g>
  <text class="cls-2" transform="translate(29.05 722.26) rotate(-.04)"><tspan x="0" y="0">圓食生鮮</tspan></text>
  <text class="cls-1" transform="translate(41.2 790.82) scale(1.1 1)"><tspan class="cls-7" x="0" y="0">Y</tspan><tspan class="cls-3" x="47.68" y="0">U</tspan><tspan class="cls-5" x="103.92" y="0">AN </tspan><tspan class="cls-7" x="244.5" y="0">F</tspan><tspan class="cls-4" x="292.8" y="0">OOD</tspan></text>
</svg>