<?xml version="1.0" encoding="UTF-8"?>
<svg xmlns="http://www.w3.org/2000/svg" xmlns:xlink="http://www.w3.org/1999/xlink" width="238px" height="69px" viewBox="0 0 237 69" version="1.1">
<defs>
<clipPath id="clip1">
  <path d="M 88.03125 50.21875 L 97 50.21875 L 97 61.832031 L 88.03125 61.832031 Z M 88.03125 50.21875 "/>
</clipPath>
<clipPath id="clip2">
  <path d="M 105 50.21875 L 115 50.21875 L 115 61.832031 L 105 61.832031 Z M 105 50.21875 "/>
</clipPath>
<clipPath id="clip3">
  <path d="M 122 50.21875 L 133 50.21875 L 133 61.832031 L 122 61.832031 Z M 122 50.21875 "/>
</clipPath>
<clipPath id="clip4">
  <path d="M 140 50.21875 L 150 50.21875 L 150 61.832031 L 140 61.832031 Z M 140 50.21875 "/>
</clipPath>
<clipPath id="clip5">
  <path d="M 170 50.21875 L 178 50.21875 L 178 61.832031 L 170 61.832031 Z M 170 50.21875 "/>
</clipPath>
<clipPath id="clip6">
  <path d="M 185 50.21875 L 197 50.21875 L 197 61.832031 L 185 61.832031 Z M 185 50.21875 "/>
</clipPath>
<clipPath id="clip7">
  <path d="M 204 50.21875 L 216 50.21875 L 216 61.832031 L 204 61.832031 Z M 204 50.21875 "/>
</clipPath>
<clipPath id="clip8">
  <path d="M 224 50.21875 L 233.773438 50.21875 L 233.773438 61.832031 L 224 61.832031 Z M 224 50.21875 "/>
</clipPath>
</defs>
<g id="surface1">
<path style=" stroke:none;fill-rule:evenodd;fill:rgb(100%,100%,100%);fill-opacity:1;" d="M 36.644531 14.203125 C 31.675781 10.859375 25.375 9.277344 18.050781 10.078125 C 16.742188 10.222656 15.566406 9.273438 15.421875 7.960938 C 15.28125 6.648438 16.226562 5.46875 17.535156 5.324219 C 25.859375 4.410156 33.308594 6.199219 39.300781 10.230469 C 45.28125 14.257812 49.664062 20.421875 52.035156 28.019531 C 52.429688 29.28125 51.730469 30.621094 50.476562 31.015625 C 49.21875 31.410156 47.882812 30.710938 47.488281 29.449219 C 45.398438 22.757812 41.617188 17.550781 36.644531 14.203125 Z M 36.644531 14.203125 "/>
<path style=" stroke:none;fill-rule:evenodd;fill:rgb(100%,100%,100%);fill-opacity:1;" d="M 34.460938 5.433594 C 18.398438 5.21875 5.089844 18.128906 4.773438 34.226562 C 4.613281 43.074219 8.332031 51.042969 14.359375 56.546875 L 14.363281 56.546875 C 14.957031 57.09375 15.765625 57.355469 16.585938 57.253906 C 18.945312 56.964844 22.753906 56.308594 26.308594 54.886719 C 29.929688 53.441406 32.835938 51.378906 34.070312 48.558594 C 34.601562 47.351562 36.007812 46.800781 37.214844 47.332031 C 38.417969 47.863281 38.964844 49.277344 38.433594 50.484375 C 36.445312 55.023438 32.113281 57.714844 28.074219 59.328125 C 23.976562 60.96875 19.707031 61.6875 17.164062 62 C 14.976562 62.269531 12.78125 61.574219 11.152344 60.082031 C 4.148438 53.691406 -0.179688 44.417969 0.00390625 34.136719 L 0.00390625 34.132812 C 0.375 15.402344 15.84375 0.402344 34.523438 0.652344 C 52.941406 0.902344 67.824219 15.816406 68.101562 34.277344 L 68.101562 34.28125 C 68.375 53.09375 53.023438 68.839844 34.261719 68.945312 L 34.25 66.554688 L 34.261719 68.945312 C 29.824219 68.972656 25.578125 68.144531 21.683594 66.625 C 20.457031 66.148438 19.851562 64.761719 20.328125 63.53125 C 20.804688 62.300781 22.183594 61.691406 23.410156 62.167969 C 26.757812 63.472656 30.410156 64.1875 34.234375 64.164062 C 50.339844 64.074219 63.570312 50.511719 63.332031 34.351562 L 65.714844 34.316406 L 63.332031 34.351562 C 63.09375 18.476562 50.296875 5.648438 34.460938 5.433594 L 34.492188 3.042969 Z M 34.460938 5.433594 "/>
<path style=" stroke:none;fill-rule:evenodd;fill:rgb(100%,100%,100%);fill-opacity:1;" d="M 1.65625 34.867188 C 1.65625 33.546875 2.722656 32.476562 4.039062 32.476562 L 31.789062 32.476562 C 33.105469 32.476562 34.175781 33.546875 34.175781 34.867188 C 34.175781 36.1875 33.105469 37.257812 31.789062 37.257812 L 4.039062 37.257812 C 2.722656 37.257812 1.65625 36.1875 1.65625 34.867188 Z M 1.65625 34.867188 "/>
<path style=" stroke:none;fill-rule:evenodd;fill:rgb(100%,100%,100%);fill-opacity:1;" d="M 2.023438 26.34375 C 2.023438 25.023438 3.089844 23.953125 4.40625 23.953125 L 35.921875 23.953125 C 38.53125 23.953125 40.625 25.507812 41.960938 27.472656 C 43.308594 29.453125 44.066406 32.050781 44.066406 34.804688 C 44.066406 37.558594 43.308594 40.160156 41.960938 42.136719 C 40.625 44.101562 38.53125 45.65625 35.921875 45.65625 L 4.039062 45.65625 C 2.722656 45.65625 1.65625 44.585938 1.65625 43.265625 C 1.65625 41.945312 2.722656 40.875 4.039062 40.875 L 35.921875 40.875 C 36.492188 40.875 37.277344 40.539062 38.027344 39.441406 C 38.765625 38.355469 39.296875 36.722656 39.296875 34.804688 C 39.296875 32.886719 38.765625 31.253906 38.027344 30.171875 C 37.277344 29.074219 36.492188 28.734375 35.921875 28.734375 L 4.40625 28.734375 C 3.089844 28.734375 2.023438 27.664062 2.023438 26.34375 Z M 2.023438 26.34375 "/>
<path style=" stroke:none;fill-rule:evenodd;fill:rgb(100%,100%,100%);fill-opacity:1;" d="M 20.625 43.5 C 20.25 42.242188 18.929688 41.519531 17.671875 41.894531 C 16.40625 42.265625 15.683594 43.59375 16.054688 44.863281 L 18.34375 44.1875 C 16.054688 44.863281 16.058594 44.863281 16.058594 44.863281 L 16.058594 44.867188 L 16.0625 44.875 L 16.066406 44.898438 C 16.070312 44.914062 16.078125 44.933594 16.085938 44.957031 C 16.101562 45.003906 16.121094 45.066406 16.144531 45.140625 C 16.199219 45.292969 16.273438 45.5 16.375 45.757812 C 16.578125 46.265625 16.886719 46.96875 17.328125 47.785156 C 18.210938 49.417969 19.640625 51.546875 21.84375 53.542969 C 26.335938 57.613281 33.738281 60.855469 45.347656 58.804688 C 46.644531 58.578125 47.507812 57.335938 47.28125 56.035156 C 47.050781 54.734375 45.816406 53.867188 44.519531 54.097656 C 34.269531 55.90625 28.378906 53.019531 25.039062 49.992188 C 23.324219 48.4375 22.207031 46.777344 21.519531 45.507812 C 21.175781 44.871094 20.945312 44.34375 20.804688 43.988281 C 20.734375 43.808594 20.683594 43.675781 20.65625 43.59375 C 20.640625 43.550781 20.632812 43.523438 20.628906 43.507812 C 20.628906 43.503906 20.625 43.503906 20.625 43.5 Z M 20.625 43.5 "/>
<path style=" stroke:none;fill-rule:evenodd;fill:rgb(100%,100%,100%);fill-opacity:1;" d="M 13.636719 17.695312 C 13.636719 16.375 14.703125 15.304688 16.019531 15.304688 L 25.3125 15.304688 C 26.628906 15.304688 27.695312 16.375 27.695312 17.695312 C 27.695312 19.019531 26.628906 20.089844 25.3125 20.089844 L 16.019531 20.089844 C 14.703125 20.089844 13.636719 19.019531 13.636719 17.695312 Z M 13.636719 17.695312 "/>
<path style=" stroke:none;fill-rule:nonzero;fill:rgb(100%,100%,100%);fill-opacity:1;" d="M 85.128906 11.644531 C 85.128906 10.753906 85.433594 10.015625 86.046875 9.402344 C 86.65625 8.785156 87.417969 8.476562 88.273438 8.476562 L 113.011719 8.445312 C 113.898438 8.445312 114.632812 8.753906 115.242188 9.371094 C 115.855469 9.984375 116.160156 10.753906 116.160156 11.613281 L 116.191406 39.597656 C 116.191406 40.058594 116.007812 40.457031 115.671875 40.796875 C 115.335938 41.132812 114.9375 41.320312 114.480469 41.320312 L 114.234375 41.320312 C 113.808594 41.320312 113.472656 41.164062 113.195312 40.886719 C 112.921875 40.582031 112.769531 40.242188 112.769531 39.875 C 112.769531 39.75 112.707031 39.6875 112.585938 39.6875 L 88.582031 39.71875 C 88.457031 39.71875 88.398438 39.78125 88.398438 39.90625 C 88.398438 40.304688 88.246094 40.644531 87.96875 40.917969 C 87.664062 41.226562 87.328125 41.351562 86.960938 41.351562 L 86.777344 41.351562 C 86.320312 41.351562 85.921875 41.195312 85.617188 40.886719 C 85.3125 40.582031 85.128906 40.179688 85.128906 39.71875 Z M 88.425781 36.214844 C 88.425781 36.460938 88.550781 36.582031 88.792969 36.582031 L 112.433594 36.554688 C 112.679688 36.554688 112.800781 36.429688 112.800781 36.183594 L 112.769531 11.953125 C 112.769531 11.707031 112.648438 11.582031 112.402344 11.582031 L 88.765625 11.613281 C 88.519531 11.613281 88.398438 11.738281 88.398438 11.984375 Z M 109.378906 28.25 C 109.378906 29.140625 109.074219 29.878906 108.464844 30.496094 C 107.851562 31.109375 107.089844 31.417969 106.234375 31.417969 L 105.074219 31.417969 C 105.011719 31.417969 104.980469 31.449219 104.980469 31.480469 C 104.980469 31.511719 104.980469 31.539062 105.042969 31.539062 C 106.875 32.246094 108.464844 32.984375 109.835938 33.722656 C 110.113281 33.910156 110.234375 34.15625 110.234375 34.460938 C 110.234375 34.769531 110.050781 34.984375 109.746094 35.109375 C 109.378906 35.292969 109.011719 35.355469 108.617188 35.355469 C 108.097656 35.355469 107.609375 35.199219 107.089844 34.921875 C 106.082031 34.308594 104.949219 33.753906 103.730469 33.199219 C 103.394531 33.015625 103.210938 32.769531 103.179688 32.371094 C 103.148438 32 103.269531 31.695312 103.605469 31.511719 C 103.636719 31.480469 103.636719 31.449219 103.636719 31.449219 C 103.636719 31.417969 103.605469 31.417969 103.578125 31.417969 L 97.347656 31.417969 C 97.316406 31.417969 97.316406 31.417969 97.316406 31.449219 C 97.316406 31.449219 97.316406 31.480469 97.347656 31.511719 C 97.710938 31.632812 97.925781 31.878906 97.988281 32.277344 C 98.046875 32.679688 97.894531 32.984375 97.558594 33.199219 C 96.277344 33.96875 94.871094 34.644531 93.375 35.261719 C 93.070312 35.355469 92.824219 35.382812 92.582031 35.382812 C 92.0625 35.382812 91.542969 35.167969 91.085938 34.738281 C 90.871094 34.554688 90.777344 34.308594 90.839844 34 C 90.902344 33.691406 91.054688 33.539062 91.328125 33.445312 C 93.191406 32.863281 94.71875 32.246094 95.878906 31.601562 C 95.941406 31.570312 95.941406 31.539062 95.941406 31.480469 C 95.941406 31.417969 95.910156 31.417969 95.847656 31.417969 L 94.964844 31.417969 C 94.078125 31.417969 93.34375 31.109375 92.734375 30.496094 C 92.125 29.878906 91.816406 29.109375 91.816406 28.25 L 91.816406 23.144531 C 91.816406 22.253906 92.125 21.515625 92.734375 20.902344 C 93.34375 20.285156 94.109375 19.976562 94.964844 19.976562 L 106.203125 19.976562 C 107.089844 19.976562 107.820312 20.285156 108.433594 20.902344 C 109.042969 21.515625 109.347656 22.285156 109.347656 23.144531 Z M 105.257812 13.398438 C 105.988281 13.398438 106.601562 13.644531 107.121094 14.167969 C 107.636719 14.691406 107.914062 15.304688 107.914062 16.042969 C 107.914062 16.78125 107.636719 17.394531 107.121094 17.917969 C 106.601562 18.441406 105.957031 18.6875 105.257812 18.6875 L 95.972656 18.6875 C 95.269531 18.6875 94.660156 18.441406 94.140625 17.917969 C 93.621094 17.394531 93.34375 16.78125 93.34375 16.042969 C 93.34375 15.304688 93.589844 14.691406 94.140625 14.167969 C 94.660156 13.644531 95.269531 13.398438 95.972656 13.398438 Z M 95.117188 21.730469 C 94.871094 21.730469 94.75 21.855469 94.75 22.101562 L 94.75 22.839844 C 94.75 23.085938 94.871094 23.207031 95.117188 23.207031 L 105.957031 23.207031 C 106.203125 23.207031 106.324219 23.085938 106.324219 22.839844 L 106.324219 22.101562 C 106.324219 21.855469 106.203125 21.730469 105.957031 21.730469 Z M 95.117188 24.867188 C 94.871094 24.867188 94.75 24.992188 94.75 25.238281 L 94.75 26.003906 C 94.75 26.25 94.871094 26.375 95.117188 26.375 L 105.957031 26.375 C 106.203125 26.375 106.324219 26.25 106.324219 26.003906 L 106.324219 25.238281 C 106.324219 24.992188 106.203125 24.867188 105.957031 24.867188 Z M 95.117188 28.097656 C 94.871094 28.097656 94.75 28.21875 94.75 28.464844 L 94.75 29.355469 C 94.75 29.601562 94.871094 29.726562 95.117188 29.726562 L 105.957031 29.726562 C 106.203125 29.726562 106.324219 29.601562 106.324219 29.355469 L 106.324219 28.464844 C 106.324219 28.21875 106.203125 28.097656 105.957031 28.097656 Z M 104.554688 16.902344 C 104.796875 16.902344 104.921875 16.78125 104.921875 16.535156 L 104.921875 15.519531 C 104.921875 15.273438 104.796875 15.152344 104.554688 15.152344 L 96.550781 15.152344 C 96.308594 15.152344 96.183594 15.273438 96.183594 15.519531 L 96.183594 16.535156 C 96.183594 16.78125 96.308594 16.902344 96.550781 16.902344 Z M 104.554688 16.902344 "/>
<path style=" stroke:none;fill-rule:nonzero;fill:rgb(100%,100%,100%);fill-opacity:1;" d="M 150.488281 30.765625 C 150.882812 30.488281 151.3125 30.367188 151.769531 30.367188 L 151.800781 30.367188 C 152.289062 30.367188 152.71875 30.519531 153.082031 30.796875 C 153.421875 31.042969 153.574219 31.378906 153.574219 31.78125 C 153.574219 32.210938 153.359375 32.519531 153.023438 32.734375 C 151.128906 33.992188 149.082031 35.164062 146.914062 36.300781 C 146.851562 36.363281 146.792969 36.421875 146.792969 36.484375 C 146.792969 36.546875 146.824219 36.609375 146.914062 36.636719 C 149.050781 37.683594 151.585938 38.484375 154.488281 39.007812 C 154.855469 39.066406 155.097656 39.3125 155.222656 39.652344 C 155.34375 40.019531 155.3125 40.359375 155.097656 40.667969 C 154.765625 41.160156 154.335938 41.527344 153.878906 41.773438 C 153.574219 41.957031 153.238281 42.019531 152.871094 42.019531 C 152.71875 42.019531 152.566406 41.988281 152.414062 41.957031 C 145.386719 40.390625 140.441406 37.039062 137.507812 31.933594 C 137.386719 31.71875 137.203125 31.59375 136.957031 31.59375 L 132.558594 31.59375 C 132.316406 31.59375 132.195312 31.71875 132.195312 31.964844 L 132.195312 37.746094 C 132.195312 37.835938 132.222656 37.929688 132.316406 37.992188 C 132.375 38.054688 132.46875 38.082031 132.558594 38.082031 C 133.078125 38.023438 134.210938 37.929688 135.859375 37.777344 C 137.261719 37.652344 138.484375 37.53125 139.492188 37.4375 C 139.554688 37.4375 139.585938 37.4375 139.644531 37.4375 C 139.980469 37.4375 140.285156 37.5625 140.59375 37.808594 C 140.898438 38.113281 141.082031 38.453125 141.082031 38.882812 C 141.082031 39.3125 140.929688 39.683594 140.652344 39.988281 C 140.378906 40.296875 140.011719 40.480469 139.554688 40.542969 C 134.453125 41.097656 130.238281 41.496094 126.847656 41.804688 C 126.789062 41.804688 126.757812 41.804688 126.695312 41.804688 C 126.300781 41.804688 125.960938 41.679688 125.628906 41.433594 C 125.261719 41.160156 125.046875 40.789062 124.984375 40.328125 C 124.953125 40.234375 124.953125 40.144531 124.953125 40.082031 C 124.953125 39.746094 125.078125 39.4375 125.292969 39.160156 C 125.566406 38.820312 125.902344 38.636719 126.359375 38.605469 C 126.511719 38.574219 126.664062 38.574219 126.789062 38.574219 C 127.460938 38.515625 128.007812 38.453125 128.4375 38.421875 C 128.679688 38.390625 128.804688 38.269531 128.804688 38.023438 L 128.804688 19.726562 C 128.804688 19.664062 128.773438 19.601562 128.679688 19.542969 C 128.621094 19.480469 128.527344 19.480469 128.46875 19.542969 C 127.519531 20.09375 126.636719 20.585938 125.78125 21.015625 C 125.535156 21.140625 125.292969 21.203125 125.015625 21.203125 C 124.832031 21.203125 124.617188 21.171875 124.4375 21.078125 C 123.976562 20.925781 123.609375 20.648438 123.304688 20.25 C 123.121094 20.003906 123 19.726562 123 19.449219 C 123 19.355469 123 19.234375 123.03125 19.109375 C 123.152344 18.679688 123.398438 18.371094 123.792969 18.1875 C 126.328125 17.019531 128.742188 15.574219 131.0625 13.851562 C 133.230469 12.285156 135.003906 10.714844 136.378906 9.117188 C 137.171875 8.226562 138.117188 7.765625 139.21875 7.765625 C 140.316406 7.765625 141.265625 8.195312 142.089844 9.054688 C 143.859375 10.871094 145.90625 12.53125 148.226562 14.066406 C 150.519531 15.574219 152.808594 16.835938 155.128906 17.789062 C 155.527344 17.972656 155.800781 18.25 155.925781 18.710938 C 155.984375 18.863281 155.984375 19.019531 155.984375 19.140625 C 155.984375 19.449219 155.894531 19.695312 155.742188 19.941406 C 155.433594 20.402344 155.007812 20.710938 154.519531 20.863281 C 154.304688 20.925781 154.089844 20.988281 153.910156 20.988281 C 153.601562 20.988281 153.328125 20.925781 153.023438 20.769531 C 152.257812 20.371094 151.433594 19.941406 150.546875 19.449219 C 150.488281 19.386719 150.394531 19.386719 150.335938 19.449219 C 150.273438 19.511719 150.214844 19.570312 150.214844 19.632812 L 150.214844 30.703125 C 150.214844 30.765625 150.242188 30.796875 150.273438 30.828125 C 150.304688 30.855469 150.335938 30.855469 150.394531 30.828125 C 150.394531 30.828125 150.425781 30.796875 150.488281 30.765625 Z M 141.113281 17.757812 C 141.113281 17.972656 141.234375 18.097656 141.449219 18.097656 L 147.769531 18.097656 C 147.832031 18.097656 147.863281 18.066406 147.863281 18.035156 C 147.863281 17.972656 147.863281 17.941406 147.832031 17.910156 C 144.257812 15.667969 141.507812 13.421875 139.523438 11.207031 C 139.339844 11.023438 139.1875 11.023438 139.066406 11.207031 C 137.203125 13.421875 134.546875 15.636719 131.09375 17.910156 C 131.03125 17.941406 131.03125 17.972656 131.0625 18.035156 C 131.09375 18.097656 131.125 18.097656 131.1875 18.097656 L 137.261719 18.097656 C 137.476562 18.097656 137.601562 17.972656 137.601562 17.757812 L 137.601562 16.464844 C 137.601562 15.972656 137.78125 15.574219 138.117188 15.207031 C 138.453125 14.867188 138.882812 14.683594 139.371094 14.683594 C 139.859375 14.683594 140.285156 14.867188 140.621094 15.207031 C 140.960938 15.542969 141.140625 15.972656 141.140625 16.4375 Z M 132.5 20.863281 C 132.253906 20.863281 132.132812 20.988281 132.132812 21.234375 L 132.132812 23.109375 C 132.132812 23.355469 132.253906 23.476562 132.5 23.476562 L 146.332031 23.476562 C 146.578125 23.476562 146.699219 23.355469 146.699219 23.109375 L 146.699219 21.234375 C 146.699219 20.988281 146.578125 20.863281 146.332031 20.863281 Z M 132.5 26.121094 C 132.253906 26.121094 132.132812 26.246094 132.132812 26.492188 L 132.132812 28.519531 C 132.132812 28.765625 132.253906 28.890625 132.5 28.890625 L 146.332031 28.890625 C 146.578125 28.890625 146.699219 28.765625 146.699219 28.519531 L 146.699219 26.492188 C 146.699219 26.246094 146.578125 26.121094 146.332031 26.121094 Z M 148.960938 31.78125 C 149.023438 31.75 149.023438 31.71875 148.992188 31.65625 C 148.960938 31.59375 148.929688 31.59375 148.871094 31.59375 L 141.113281 31.59375 C 141.050781 31.59375 140.988281 31.625 140.960938 31.71875 C 140.929688 31.78125 140.929688 31.839844 140.988281 31.902344 C 141.722656 32.855469 142.578125 33.746094 143.585938 34.578125 C 143.769531 34.730469 143.980469 34.730469 144.195312 34.609375 C 145.84375 33.746094 147.433594 32.792969 148.960938 31.78125 Z M 148.960938 31.78125 "/>
<path style=" stroke:none;fill-rule:nonzero;fill:rgb(100%,100%,100%);fill-opacity:1;" d="M 181.152344 37.90625 C 181.152344 38.152344 181.273438 38.273438 181.515625 38.273438 L 194.253906 38.273438 C 194.710938 38.273438 195.109375 38.429688 195.445312 38.765625 C 195.78125 39.105469 195.933594 39.503906 195.933594 39.964844 C 195.933594 40.425781 195.78125 40.828125 195.445312 41.164062 C 195.109375 41.503906 194.710938 41.65625 194.253906 41.65625 L 164.476562 41.6875 C 164.019531 41.6875 163.621094 41.535156 163.285156 41.195312 C 162.949219 40.859375 162.796875 40.457031 162.796875 39.996094 C 162.796875 39.535156 162.949219 39.136719 163.285156 38.796875 C 163.621094 38.460938 164.019531 38.304688 164.476562 38.304688 L 177.210938 38.304688 C 177.457031 38.304688 177.578125 38.183594 177.578125 37.9375 L 177.578125 30.035156 C 177.578125 29.789062 177.457031 29.664062 177.210938 29.664062 L 168.597656 29.664062 C 168.171875 29.664062 167.773438 29.511719 167.4375 29.171875 C 167.101562 28.835938 166.949219 28.464844 166.949219 28.003906 C 166.949219 27.542969 167.101562 27.175781 167.4375 26.835938 C 167.773438 26.496094 168.140625 26.34375 168.597656 26.34375 L 177.210938 26.34375 C 177.457031 26.34375 177.578125 26.222656 177.578125 25.976562 L 177.578125 19.242188 C 177.578125 18.996094 177.457031 18.871094 177.210938 18.871094 L 169.667969 18.871094 C 169.421875 18.871094 169.238281 18.996094 169.117188 19.210938 C 168.355469 20.6875 167.558594 22.007812 166.765625 23.175781 C 166.460938 23.605469 166.0625 23.824219 165.542969 23.882812 C 165.453125 23.914062 165.359375 23.914062 165.238281 23.914062 C 164.8125 23.914062 164.445312 23.792969 164.078125 23.546875 C 163.679688 23.269531 163.4375 22.898438 163.34375 22.4375 C 163.316406 22.316406 163.316406 22.191406 163.316406 22.101562 C 163.316406 21.761719 163.4375 21.453125 163.679688 21.148438 C 165.726562 18.503906 167.378906 15.058594 168.660156 10.785156 C 168.8125 10.261719 169.117188 9.890625 169.574219 9.644531 C 169.882812 9.460938 170.1875 9.339844 170.523438 9.339844 C 170.675781 9.339844 170.828125 9.371094 170.949219 9.402344 C 171.46875 9.492188 171.835938 9.769531 172.082031 10.199219 C 172.261719 10.476562 172.324219 10.753906 172.324219 11.03125 C 172.324219 11.214844 172.292969 11.398438 172.203125 11.582031 C 171.867188 12.628906 171.4375 13.796875 170.980469 15.058594 C 170.917969 15.121094 170.917969 15.210938 170.980469 15.273438 C 171.042969 15.335938 171.101562 15.398438 171.195312 15.398438 L 177.210938 15.398438 C 177.457031 15.398438 177.578125 15.273438 177.578125 15.027344 L 177.578125 10.230469 C 177.578125 9.738281 177.761719 9.308594 178.097656 8.96875 C 178.464844 8.601562 178.859375 8.445312 179.347656 8.445312 C 179.839844 8.445312 180.265625 8.632812 180.601562 8.96875 C 180.96875 9.339844 181.121094 9.738281 181.121094 10.230469 L 181.121094 15.027344 C 181.121094 15.273438 181.242188 15.398438 181.488281 15.398438 L 192.390625 15.398438 C 192.847656 15.398438 193.246094 15.582031 193.582031 15.917969 C 193.917969 16.257812 194.101562 16.65625 194.101562 17.117188 C 194.101562 17.578125 193.917969 17.980469 193.582031 18.316406 C 193.246094 18.65625 192.847656 18.839844 192.390625 18.839844 L 181.488281 18.839844 C 181.242188 18.839844 181.121094 18.964844 181.121094 19.210938 L 181.121094 25.945312 C 181.121094 26.191406 181.242188 26.3125 181.488281 26.3125 L 191.046875 26.3125 C 191.503906 26.3125 191.902344 26.464844 192.238281 26.804688 C 192.574219 27.144531 192.726562 27.511719 192.726562 27.972656 C 192.726562 28.433594 192.574219 28.804688 192.238281 29.140625 C 191.902344 29.480469 191.503906 29.632812 191.046875 29.632812 L 181.488281 29.632812 C 181.242188 29.632812 181.121094 29.757812 181.121094 30.003906 Z M 181.152344 37.90625 "/>
<path style=" stroke:none;fill-rule:nonzero;fill:rgb(100%,100%,100%);fill-opacity:1;" d="M 205.277344 40.914062 C 205.09375 41.21875 204.789062 41.433594 204.394531 41.496094 C 203.996094 41.558594 203.660156 41.496094 203.324219 41.3125 C 203.019531 41.128906 202.867188 40.882812 202.773438 40.542969 C 202.742188 40.480469 202.742188 40.390625 202.742188 40.296875 C 202.742188 40.050781 202.804688 39.835938 202.957031 39.589844 C 203.75 38.328125 204.332031 36.546875 204.667969 34.269531 C 204.726562 33.933594 204.882812 33.65625 205.15625 33.472656 C 205.429688 33.285156 205.738281 33.226562 206.042969 33.285156 C 206.410156 33.378906 206.683594 33.59375 206.898438 33.871094 C 207.109375 34.179688 207.171875 34.484375 207.140625 34.855469 C 206.773438 37.53125 206.164062 39.527344 205.277344 40.914062 Z M 207.722656 31.59375 C 206.835938 31.59375 206.101562 31.289062 205.492188 30.671875 C 204.882812 30.058594 204.574219 29.289062 204.574219 28.429688 L 204.574219 21.292969 C 204.574219 21.078125 204.515625 20.894531 204.394531 20.742188 C 203.875 20.15625 203.539062 19.511719 203.445312 18.773438 C 203.414062 18.589844 203.414062 18.433594 203.414062 18.3125 C 203.414062 17.757812 203.566406 17.203125 203.875 16.710938 C 205.25 14.5 206.347656 12.007812 207.171875 9.179688 C 207.292969 8.746094 207.539062 8.378906 207.933594 8.101562 C 208.242188 7.886719 208.578125 7.765625 208.914062 7.765625 C 209.003906 7.765625 209.097656 7.765625 209.15625 7.792969 C 209.585938 7.855469 209.921875 8.039062 210.132812 8.410156 C 210.316406 8.65625 210.378906 8.902344 210.378906 9.148438 C 210.378906 9.300781 210.347656 9.457031 210.316406 9.578125 C 210.195312 9.917969 210.074219 10.285156 209.980469 10.65625 C 209.953125 10.714844 209.953125 10.808594 210.011719 10.871094 C 210.042969 10.929688 210.105469 10.960938 210.164062 10.960938 L 213.921875 10.960938 C 213.953125 10.960938 213.984375 10.960938 214.042969 10.929688 C 214.410156 10.839844 214.746094 10.902344 215.050781 11.117188 L 215.601562 11.484375 C 215.875 11.667969 216.058594 11.945312 216.152344 12.285156 C 216.242188 12.621094 216.210938 12.960938 216.027344 13.269531 C 215.417969 14.527344 214.808594 15.636719 214.226562 16.679688 C 214.167969 16.742188 214.167969 16.835938 214.195312 16.898438 C 214.226562 16.957031 214.289062 17.019531 214.347656 17.019531 L 215.328125 17.019531 C 216.210938 17.019531 216.945312 17.328125 217.554688 17.941406 C 218.167969 18.558594 218.472656 19.324219 218.472656 20.1875 L 218.472656 28.457031 C 218.472656 29.351562 218.167969 30.089844 217.554688 30.703125 C 216.945312 31.320312 216.183594 31.625 215.328125 31.625 Z M 212.363281 13.945312 C 212.394531 13.882812 212.363281 13.792969 212.332031 13.730469 C 212.273438 13.667969 212.210938 13.605469 212.152344 13.605469 L 209.1875 13.605469 C 208.945312 13.605469 208.761719 13.730469 208.667969 13.945312 C 208.394531 14.589844 207.996094 15.480469 207.445312 16.589844 C 207.386719 16.652344 207.386719 16.742188 207.445312 16.804688 C 207.507812 16.867188 207.570312 16.925781 207.628906 16.925781 L 210.46875 16.925781 C 210.746094 16.925781 210.929688 16.804688 211.019531 16.589844 C 211.539062 15.699219 211.96875 14.804688 212.363281 13.945312 Z M 207.417969 22.585938 C 207.417969 22.832031 207.539062 22.953125 207.78125 22.953125 L 209.859375 22.953125 C 210.105469 22.953125 210.226562 22.832031 210.226562 22.585938 L 210.226562 20.125 C 210.226562 19.878906 210.105469 19.757812 209.859375 19.757812 L 207.78125 19.757812 C 207.539062 19.757812 207.417969 19.878906 207.417969 20.125 Z M 210.226562 25.90625 C 210.226562 25.660156 210.105469 25.539062 209.859375 25.539062 L 207.78125 25.539062 C 207.539062 25.539062 207.417969 25.660156 207.417969 25.90625 L 207.417969 28.367188 C 207.417969 28.613281 207.539062 28.734375 207.78125 28.734375 L 209.859375 28.734375 C 210.105469 28.734375 210.226562 28.613281 210.226562 28.367188 Z M 208.484375 34.300781 C 208.484375 34.054688 208.546875 33.839844 208.699219 33.59375 C 208.882812 33.347656 209.15625 33.195312 209.460938 33.164062 C 209.769531 33.132812 210.074219 33.226562 210.347656 33.410156 C 210.625 33.59375 210.777344 33.839844 210.835938 34.148438 C 211.050781 35.714844 211.171875 37.285156 211.203125 38.914062 C 211.203125 39.253906 211.082031 39.558594 210.867188 39.835938 C 210.625 40.113281 210.347656 40.265625 209.980469 40.328125 C 209.675781 40.359375 209.402344 40.265625 209.15625 40.019531 C 208.914062 39.804688 208.789062 39.527344 208.789062 39.222656 C 208.789062 39.128906 208.789062 39.035156 208.789062 38.914062 Z M 212.179688 34.515625 C 212.152344 34.394531 212.152344 34.269531 212.152344 34.179688 C 212.152344 33.992188 212.179688 33.839844 212.273438 33.65625 C 212.425781 33.378906 212.640625 33.226562 212.914062 33.164062 C 213.21875 33.101562 213.523438 33.132812 213.828125 33.285156 C 214.136719 33.441406 214.320312 33.65625 214.410156 33.964844 C 214.929688 35.4375 215.296875 36.914062 215.570312 38.390625 C 215.632812 38.699219 215.539062 39.007812 215.355469 39.3125 C 215.175781 39.621094 214.898438 39.773438 214.5625 39.867188 C 214.257812 39.929688 213.984375 39.898438 213.738281 39.714844 C 213.464844 39.527344 213.3125 39.28125 213.25 38.976562 C 213.066406 37.5625 212.699219 36.085938 212.179688 34.515625 Z M 215.234375 22.925781 C 215.480469 22.925781 215.601562 22.800781 215.601562 22.554688 L 215.601562 20.09375 C 215.601562 19.847656 215.480469 19.726562 215.234375 19.726562 L 213.097656 19.726562 C 212.851562 19.726562 212.730469 19.847656 212.730469 20.09375 L 212.730469 22.554688 C 212.730469 22.800781 212.851562 22.925781 213.097656 22.925781 Z M 215.234375 28.703125 C 215.480469 28.703125 215.601562 28.582031 215.601562 28.335938 L 215.601562 25.875 C 215.601562 25.628906 215.480469 25.507812 215.234375 25.507812 L 213.097656 25.507812 C 212.851562 25.507812 212.730469 25.628906 212.730469 25.875 L 212.730469 28.335938 C 212.730469 28.582031 212.851562 28.703125 213.097656 28.703125 Z M 216.027344 34.148438 C 215.96875 33.992188 215.90625 33.839844 215.90625 33.71875 C 215.90625 33.59375 215.9375 33.472656 215.96875 33.316406 C 216.058594 33.039062 216.273438 32.855469 216.546875 32.734375 C 216.855469 32.640625 217.1875 32.640625 217.496094 32.765625 C 217.800781 32.886719 218.042969 33.101562 218.199219 33.378906 C 219.023438 35.007812 219.695312 36.546875 220.152344 37.992188 C 220.273438 38.328125 220.242188 38.667969 220.089844 38.976562 C 219.9375 39.28125 219.695312 39.5 219.359375 39.621094 C 219.050781 39.746094 218.777344 39.714844 218.472656 39.558594 C 218.167969 39.40625 217.984375 39.160156 217.890625 38.851562 C 217.433594 37.34375 216.824219 35.777344 216.027344 34.148438 Z M 235.148438 29.535156 C 235.546875 29.535156 235.910156 29.6875 236.21875 29.996094 C 236.523438 30.304688 236.675781 30.671875 236.675781 31.074219 C 236.675781 31.503906 236.523438 31.839844 236.21875 32.148438 C 235.910156 32.457031 235.546875 32.609375 235.148438 32.609375 L 229.621094 32.609375 C 229.375 32.609375 229.253906 32.734375 229.253906 32.980469 L 229.253906 40.175781 C 229.253906 40.667969 229.101562 41.066406 228.765625 41.40625 C 228.429688 41.742188 228.03125 41.898438 227.574219 41.898438 C 227.117188 41.898438 226.6875 41.742188 226.382812 41.40625 C 226.046875 41.066406 225.894531 40.667969 225.894531 40.175781 L 225.894531 32.980469 C 225.894531 32.734375 225.773438 32.609375 225.527344 32.609375 L 220.703125 32.609375 C 220.273438 32.609375 219.90625 32.457031 219.601562 32.148438 C 219.296875 31.839844 219.175781 31.472656 219.175781 31.074219 C 219.175781 30.671875 219.328125 30.304688 219.601562 29.996094 C 219.90625 29.6875 220.242188 29.535156 220.703125 29.535156 L 225.527344 29.535156 C 225.773438 29.535156 225.894531 29.410156 225.894531 29.167969 L 225.894531 25.476562 C 225.894531 25.230469 225.773438 25.105469 225.527344 25.105469 L 221.769531 25.105469 C 221.34375 25.105469 221.007812 24.953125 220.703125 24.675781 C 220.394531 24.398438 220.273438 24.03125 220.273438 23.601562 C 220.273438 23.167969 220.425781 22.800781 220.703125 22.523438 C 221.007812 22.214844 221.34375 22.09375 221.769531 22.09375 L 225.527344 22.09375 C 225.773438 22.09375 225.894531 21.96875 225.894531 21.726562 L 225.894531 18.34375 C 225.894531 18.097656 225.773438 17.972656 225.527344 17.972656 L 221.007812 17.972656 C 220.578125 17.972656 220.242188 17.820312 219.9375 17.511719 C 219.632812 17.203125 219.480469 16.835938 219.480469 16.40625 C 219.480469 15.972656 219.632812 15.605469 219.9375 15.328125 C 220.242188 15.019531 220.609375 14.898438 221.007812 14.898438 L 222.382812 14.898438 C 222.441406 14.898438 222.535156 14.867188 222.59375 14.773438 C 222.65625 14.714844 222.6875 14.621094 222.65625 14.558594 C 222.257812 13.082031 221.710938 11.546875 220.976562 9.949219 C 220.792969 9.578125 220.792969 9.210938 220.945312 8.839844 C 221.097656 8.472656 221.34375 8.226562 221.710938 8.101562 C 221.925781 8.039062 222.136719 7.980469 222.320312 7.980469 C 222.503906 7.980469 222.71875 8.011719 222.929688 8.101562 C 223.359375 8.257812 223.632812 8.53125 223.847656 8.902344 C 224.457031 10.132812 224.976562 11.363281 225.375 12.53125 C 225.4375 12.714844 225.4375 12.929688 225.4375 13.113281 C 225.4375 13.359375 225.375 13.605469 225.253906 13.882812 C 225.039062 14.3125 224.703125 14.652344 224.246094 14.835938 L 224.246094 14.898438 L 230.84375 14.898438 C 230.871094 14.898438 230.871094 14.867188 230.871094 14.835938 C 230.382812 14.683594 230.046875 14.375 229.863281 13.914062 C 229.742188 13.699219 229.679688 13.484375 229.679688 13.238281 C 229.679688 12.992188 229.742188 12.777344 229.863281 12.5625 C 230.351562 11.421875 230.78125 10.316406 231.148438 9.238281 C 231.332031 8.746094 231.605469 8.378906 232.0625 8.132812 C 232.367188 7.949219 232.644531 7.886719 232.980469 7.886719 C 233.164062 7.886719 233.316406 7.917969 233.4375 7.949219 C 233.894531 8.039062 234.230469 8.316406 234.414062 8.746094 C 234.507812 8.933594 234.566406 9.148438 234.566406 9.363281 C 234.566406 9.578125 234.507812 9.792969 234.414062 9.976562 C 233.46875 12.101562 232.734375 13.636719 232.1875 14.558594 C 232.15625 14.621094 232.15625 14.714844 232.214844 14.773438 C 232.246094 14.835938 232.308594 14.898438 232.367188 14.898438 L 234.324219 14.898438 C 234.71875 14.898438 235.085938 15.050781 235.394531 15.328125 C 235.699219 15.636719 235.851562 15.972656 235.851562 16.40625 C 235.851562 16.835938 235.699219 17.203125 235.394531 17.511719 C 235.085938 17.820312 234.71875 17.972656 234.324219 17.972656 L 229.621094 17.972656 C 229.375 17.972656 229.253906 18.097656 229.253906 18.34375 L 229.253906 21.726562 C 229.253906 21.96875 229.375 22.09375 229.621094 22.09375 L 233.652344 22.09375 C 234.046875 22.09375 234.414062 22.246094 234.71875 22.523438 C 235.027344 22.832031 235.148438 23.167969 235.148438 23.601562 C 235.148438 24.03125 234.996094 24.398438 234.71875 24.675781 C 234.445312 24.953125 234.078125 25.105469 233.652344 25.105469 L 229.621094 25.105469 C 229.375 25.105469 229.253906 25.230469 229.253906 25.476562 L 229.253906 29.167969 C 229.253906 29.410156 229.375 29.535156 229.621094 29.535156 Z M 235.148438 29.535156 "/>
<g clip-path="url(#clip1)" clip-rule="nonzero">
<path style=" stroke:none;fill-rule:nonzero;fill:rgb(100%,100%,100%);fill-opacity:1;" d="M 92.308594 61.644531 C 92.058594 61.644531 91.8125 61.550781 91.625 61.398438 C 91.441406 61.210938 91.347656 61.023438 91.347656 60.777344 L 91.347656 57.484375 C 91.347656 57.390625 91.316406 57.328125 91.285156 57.265625 L 88.09375 51.210938 C 88.0625 51.148438 88.03125 51.054688 88.03125 50.964844 C 88.03125 50.871094 88.0625 50.777344 88.125 50.683594 C 88.25 50.527344 88.402344 50.433594 88.621094 50.433594 L 88.773438 50.433594 C 89.054688 50.433594 89.332031 50.496094 89.582031 50.652344 C 89.828125 50.808594 90.015625 50.992188 90.136719 51.242188 L 91.160156 53.417969 C 91.71875 54.597656 92.089844 55.402344 92.308594 55.839844 C 92.308594 55.871094 92.339844 55.871094 92.371094 55.871094 C 92.398438 55.871094 92.398438 55.871094 92.429688 55.839844 C 92.460938 55.714844 92.648438 55.371094 92.925781 54.78125 C 93.207031 54.191406 93.421875 53.726562 93.578125 53.386719 L 94.632812 51.210938 C 94.753906 50.964844 94.941406 50.777344 95.1875 50.621094 C 95.4375 50.464844 95.714844 50.402344 95.992188 50.402344 L 96.085938 50.402344 C 96.304688 50.402344 96.488281 50.496094 96.613281 50.683594 C 96.675781 50.777344 96.707031 50.871094 96.707031 50.964844 C 96.707031 51.054688 96.675781 51.117188 96.644531 51.210938 L 93.359375 57.296875 C 93.328125 57.359375 93.296875 57.421875 93.296875 57.484375 L 93.296875 60.746094 C 93.296875 60.992188 93.207031 61.179688 93.019531 61.367188 C 92.832031 61.550781 92.617188 61.644531 92.308594 61.644531 Z M 92.308594 61.644531 "/>
</g>
<g clip-path="url(#clip2)" clip-rule="nonzero">
<path style=" stroke:none;fill-rule:nonzero;fill:rgb(100%,100%,100%);fill-opacity:1;" d="M 109.59375 61.832031 C 106.527344 61.832031 105.011719 60.15625 105.011719 56.832031 L 105.011719 51.304688 C 105.011719 51.054688 105.101562 50.871094 105.289062 50.683594 C 105.472656 50.496094 105.691406 50.433594 105.96875 50.433594 L 106 50.433594 C 106.25 50.433594 106.496094 50.527344 106.683594 50.683594 C 106.867188 50.871094 106.960938 51.054688 106.960938 51.304688 L 106.960938 56.957031 C 106.960938 59.191406 107.828125 60.308594 109.59375 60.308594 C 111.390625 60.308594 112.289062 59.191406 112.289062 56.957031 L 112.289062 51.273438 C 112.289062 51.023438 112.382812 50.839844 112.570312 50.652344 C 112.753906 50.496094 112.972656 50.402344 113.21875 50.402344 C 113.46875 50.402344 113.714844 50.496094 113.871094 50.652344 C 114.058594 50.808594 114.148438 51.023438 114.148438 51.273438 L 114.148438 56.800781 C 114.148438 60.15625 112.632812 61.832031 109.59375 61.832031 Z M 109.59375 61.832031 "/>
</g>
<g clip-path="url(#clip3)" clip-rule="nonzero">
<path style=" stroke:none;fill-rule:nonzero;fill:rgb(100%,100%,100%);fill-opacity:1;" d="M 131.4375 61.644531 C 131.160156 61.644531 130.910156 61.582031 130.664062 61.429688 C 130.445312 61.273438 130.292969 61.054688 130.199219 60.808594 L 129.484375 58.570312 C 129.457031 58.507812 129.394531 58.476562 129.332031 58.476562 L 125.304688 58.476562 C 125.210938 58.476562 125.148438 58.507812 125.148438 58.570312 L 124.40625 60.808594 C 124.3125 61.054688 124.15625 61.273438 123.941406 61.429688 C 123.722656 61.582031 123.445312 61.644531 123.164062 61.644531 L 123.105469 61.644531 C 122.855469 61.644531 122.671875 61.550781 122.546875 61.367188 C 122.453125 61.242188 122.421875 61.148438 122.421875 61.023438 C 122.421875 60.960938 122.453125 60.898438 122.484375 60.808594 L 125.953125 51.273438 C 126.046875 51.023438 126.203125 50.839844 126.449219 50.683594 C 126.667969 50.527344 126.945312 50.464844 127.222656 50.464844 L 127.535156 50.464844 C 127.8125 50.464844 128.0625 50.527344 128.308594 50.683594 C 128.558594 50.839844 128.710938 51.023438 128.804688 51.273438 L 132.273438 60.808594 C 132.304688 60.867188 132.335938 60.929688 132.335938 61.023438 C 132.335938 61.148438 132.273438 61.273438 132.179688 61.367188 C 132.058594 61.550781 131.871094 61.644531 131.625 61.644531 Z M 125.644531 56.957031 C 125.644531 56.988281 125.644531 56.988281 125.675781 57.019531 C 125.707031 57.050781 125.707031 57.050781 125.738281 57.050781 L 128.867188 57.050781 C 128.898438 57.050781 128.929688 57.050781 128.929688 57.019531 C 128.960938 56.988281 128.960938 56.957031 128.960938 56.957031 L 128.496094 55.558594 C 128.277344 54.96875 127.90625 53.726562 127.347656 51.863281 C 127.347656 51.832031 127.316406 51.832031 127.285156 51.832031 C 127.253906 51.832031 127.253906 51.832031 127.253906 51.863281 C 126.945312 52.949219 126.574219 54.191406 126.140625 55.558594 Z M 125.644531 56.957031 "/>
</g>
<g clip-path="url(#clip4)" clip-rule="nonzero">
<path style=" stroke:none;fill-rule:nonzero;fill:rgb(100%,100%,100%);fill-opacity:1;" d="M 142.375 61.398438 C 142.1875 61.550781 141.972656 61.644531 141.722656 61.644531 C 141.476562 61.644531 141.257812 61.550781 141.074219 61.398438 C 140.886719 61.242188 140.792969 61.023438 140.792969 60.808594 L 140.792969 51.304688 C 140.792969 51.054688 140.886719 50.871094 141.074219 50.683594 C 141.257812 50.496094 141.476562 50.433594 141.753906 50.433594 L 141.816406 50.433594 C 142.097656 50.433594 142.375 50.496094 142.652344 50.652344 C 142.902344 50.777344 143.117188 50.992188 143.242188 51.210938 L 146.835938 57.019531 L 148.105469 59.347656 C 148.105469 59.378906 148.136719 59.378906 148.167969 59.378906 C 148.199219 59.378906 148.199219 59.378906 148.199219 59.347656 C 148.042969 57.453125 147.953125 56.242188 147.953125 55.652344 L 147.953125 51.273438 C 147.953125 51.023438 148.042969 50.839844 148.230469 50.683594 C 148.417969 50.527344 148.632812 50.433594 148.882812 50.433594 C 149.128906 50.433594 149.347656 50.527344 149.53125 50.683594 C 149.71875 50.839844 149.8125 51.054688 149.8125 51.273438 L 149.8125 60.746094 C 149.8125 60.992188 149.71875 61.179688 149.53125 61.367188 C 149.347656 61.550781 149.128906 61.613281 148.851562 61.613281 L 148.789062 61.613281 C 148.507812 61.613281 148.230469 61.550781 147.953125 61.398438 C 147.703125 61.273438 147.488281 61.085938 147.363281 60.835938 L 143.769531 55 L 142.5 52.703125 C 142.5 52.671875 142.46875 52.671875 142.4375 52.671875 C 142.40625 52.671875 142.40625 52.671875 142.40625 52.703125 C 142.5625 54.597656 142.652344 55.808594 142.652344 56.335938 L 142.652344 60.777344 C 142.652344 61.023438 142.5625 61.210938 142.375 61.398438 Z M 142.375 61.398438 "/>
</g>
<g clip-path="url(#clip5)" clip-rule="nonzero">
<path style=" stroke:none;fill-rule:nonzero;fill:rgb(100%,100%,100%);fill-opacity:1;" d="M 171.125 61.644531 C 170.878906 61.644531 170.628906 61.550781 170.445312 61.398438 C 170.257812 61.210938 170.164062 61.023438 170.164062 60.777344 L 170.164062 51.304688 C 170.164062 51.054688 170.257812 50.871094 170.445312 50.683594 C 170.628906 50.496094 170.847656 50.433594 171.125 50.433594 L 176.640625 50.433594 C 176.859375 50.433594 177.074219 50.496094 177.230469 50.652344 C 177.386719 50.808594 177.476562 50.964844 177.476562 51.179688 C 177.476562 51.398438 177.386719 51.554688 177.230469 51.707031 C 177.074219 51.863281 176.890625 51.925781 176.640625 51.925781 L 172.242188 51.925781 C 172.148438 51.925781 172.117188 51.957031 172.117188 52.019531 L 172.117188 55.21875 C 172.117188 55.28125 172.148438 55.308594 172.242188 55.308594 L 175.835938 55.308594 C 176.054688 55.308594 176.269531 55.371094 176.425781 55.527344 C 176.578125 55.683594 176.671875 55.839844 176.671875 56.054688 C 176.671875 56.273438 176.578125 56.429688 176.425781 56.582031 C 176.269531 56.738281 176.082031 56.800781 175.835938 56.800781 L 172.242188 56.800781 C 172.148438 56.800781 172.117188 56.832031 172.117188 56.925781 L 172.117188 60.746094 C 172.117188 60.992188 172.023438 61.179688 171.839844 61.367188 C 171.621094 61.550781 171.40625 61.644531 171.125 61.644531 Z M 171.125 61.644531 "/>
</g>
<g clip-path="url(#clip6)" clip-rule="nonzero">
<path style=" stroke:none;fill-rule:nonzero;fill:rgb(100%,100%,100%);fill-opacity:1;" d="M 194.671875 60.246094 C 193.679688 61.304688 192.378906 61.832031 190.800781 61.832031 C 189.1875 61.832031 187.917969 61.304688 186.925781 60.246094 C 185.9375 59.191406 185.441406 57.761719 185.441406 55.992188 C 185.441406 54.222656 185.9375 52.796875 186.925781 51.769531 C 187.917969 50.746094 189.1875 50.21875 190.800781 50.21875 C 192.410156 50.21875 193.679688 50.746094 194.671875 51.769531 C 195.664062 52.796875 196.160156 54.222656 196.160156 55.992188 C 196.160156 57.761719 195.664062 59.191406 194.671875 60.246094 Z M 188.351562 59.128906 C 188.972656 59.90625 189.777344 60.308594 190.800781 60.308594 C 191.824219 60.308594 192.628906 59.90625 193.246094 59.128906 C 193.867188 58.355469 194.175781 57.296875 194.175781 55.992188 C 194.175781 54.6875 193.867188 53.664062 193.246094 52.886719 C 192.628906 52.144531 191.824219 51.738281 190.800781 51.738281 C 189.777344 51.738281 188.972656 52.113281 188.351562 52.886719 C 187.734375 53.632812 187.453125 54.6875 187.453125 55.992188 C 187.453125 57.296875 187.734375 58.355469 188.351562 59.128906 Z M 188.351562 59.128906 "/>
</g>
<g clip-path="url(#clip7)" clip-rule="nonzero">
<path style=" stroke:none;fill-rule:nonzero;fill:rgb(100%,100%,100%);fill-opacity:1;" d="M 213.945312 60.246094 C 212.953125 61.304688 211.652344 61.832031 210.070312 61.832031 C 208.460938 61.832031 207.191406 61.304688 206.199219 60.246094 C 205.207031 59.191406 204.710938 57.761719 204.710938 55.992188 C 204.710938 54.222656 205.207031 52.796875 206.199219 51.769531 C 207.191406 50.746094 208.460938 50.21875 210.070312 50.21875 C 211.683594 50.21875 212.953125 50.746094 213.945312 51.769531 C 214.9375 52.796875 215.429688 54.222656 215.429688 55.992188 C 215.429688 57.761719 214.9375 59.191406 213.945312 60.246094 Z M 207.625 59.128906 C 208.242188 59.90625 209.050781 60.308594 210.070312 60.308594 C 211.09375 60.308594 211.898438 59.90625 212.519531 59.128906 C 213.136719 58.355469 213.449219 57.296875 213.449219 55.992188 C 213.449219 54.6875 213.136719 53.664062 212.519531 52.886719 C 211.898438 52.144531 211.09375 51.738281 210.070312 51.738281 C 209.050781 51.738281 208.242188 52.113281 207.625 52.886719 C 207.003906 53.632812 206.726562 54.6875 206.726562 55.992188 C 206.695312 57.296875 207.003906 58.355469 207.625 59.128906 Z M 207.625 59.128906 "/>
</g>
<g clip-path="url(#clip8)" clip-rule="nonzero">
<path style=" stroke:none;fill-rule:nonzero;fill:rgb(100%,100%,100%);fill-opacity:1;" d="M 225.625 61.644531 C 225.375 61.644531 225.128906 61.550781 224.941406 61.398438 C 224.757812 61.210938 224.664062 61.023438 224.664062 60.777344 L 224.664062 51.304688 C 224.664062 51.054688 224.757812 50.871094 224.941406 50.683594 C 225.128906 50.496094 225.34375 50.433594 225.625 50.433594 L 227.855469 50.433594 C 229.746094 50.433594 231.230469 50.902344 232.253906 51.863281 C 233.277344 52.796875 233.773438 54.191406 233.773438 55.992188 C 233.773438 57.792969 233.277344 59.191406 232.253906 60.1875 C 231.230469 61.148438 229.808594 61.644531 227.949219 61.644531 Z M 226.585938 60.0625 C 226.585938 60.15625 226.617188 60.1875 226.707031 60.1875 L 227.699219 60.1875 C 229.03125 60.1875 230.023438 59.84375 230.738281 59.128906 C 231.417969 58.414062 231.757812 57.359375 231.757812 55.992188 C 231.757812 53.261719 230.394531 51.863281 227.699219 51.863281 L 226.707031 51.863281 C 226.617188 51.863281 226.585938 51.894531 226.585938 51.957031 Z M 226.585938 60.0625 "/>
</g>
</g>
</svg>
